%TF.GenerationSoftware,KiCad,Pcbnew,9.0.4*%
%TF.CreationDate,2025-09-25T15:45:26-04:00*%
%TF.ProjectId,Vocal Delay Pedal,566f6361-6c20-4446-956c-617920506564,1*%
%TF.SameCoordinates,Original*%
%TF.FileFunction,Copper,L1,Top*%
%TF.FilePolarity,Positive*%
%FSLAX46Y46*%
G04 Gerber Fmt 4.6, Leading zero omitted, Abs format (unit mm)*
G04 Created by KiCad (PCBNEW 9.0.4) date 2025-09-25 15:45:26*
%MOMM*%
%LPD*%
G01*
G04 APERTURE LIST*
G04 Aperture macros list*
%AMRoundRect*
0 Rectangle with rounded corners*
0 $1 Rounding radius*
0 $2 $3 $4 $5 $6 $7 $8 $9 X,Y pos of 4 corners*
0 Add a 4 corners polygon primitive as box body*
4,1,4,$2,$3,$4,$5,$6,$7,$8,$9,$2,$3,0*
0 Add four circle primitives for the rounded corners*
1,1,$1+$1,$2,$3*
1,1,$1+$1,$4,$5*
1,1,$1+$1,$6,$7*
1,1,$1+$1,$8,$9*
0 Add four rect primitives between the rounded corners*
20,1,$1+$1,$2,$3,$4,$5,0*
20,1,$1+$1,$4,$5,$6,$7,0*
20,1,$1+$1,$6,$7,$8,$9,0*
20,1,$1+$1,$8,$9,$2,$3,0*%
G04 Aperture macros list end*
%TA.AperFunction,ComponentPad*%
%ADD10RoundRect,0.250000X-0.600000X-0.750000X0.600000X-0.750000X0.600000X0.750000X-0.600000X0.750000X0*%
%TD*%
%TA.AperFunction,ComponentPad*%
%ADD11O,1.700000X2.000000*%
%TD*%
%TA.AperFunction,ComponentPad*%
%ADD12C,1.600000*%
%TD*%
%TA.AperFunction,ComponentPad*%
%ADD13R,1.700000X1.700000*%
%TD*%
%TA.AperFunction,ComponentPad*%
%ADD14C,1.700000*%
%TD*%
%TA.AperFunction,ComponentPad*%
%ADD15C,1.200000*%
%TD*%
%TA.AperFunction,ComponentPad*%
%ADD16RoundRect,0.250000X0.725000X-0.600000X0.725000X0.600000X-0.725000X0.600000X-0.725000X-0.600000X0*%
%TD*%
%TA.AperFunction,ComponentPad*%
%ADD17O,1.950000X1.700000*%
%TD*%
%TA.AperFunction,ComponentPad*%
%ADD18C,1.778000*%
%TD*%
%TA.AperFunction,ComponentPad*%
%ADD19C,3.937000*%
%TD*%
%TA.AperFunction,ComponentPad*%
%ADD20R,1.130000X1.130000*%
%TD*%
%TA.AperFunction,ComponentPad*%
%ADD21C,1.130000*%
%TD*%
%TA.AperFunction,ComponentPad*%
%ADD22RoundRect,0.250000X-0.550000X-0.550000X0.550000X-0.550000X0.550000X0.550000X-0.550000X0.550000X0*%
%TD*%
%TA.AperFunction,ComponentPad*%
%ADD23RoundRect,0.250000X0.600000X0.725000X-0.600000X0.725000X-0.600000X-0.725000X0.600000X-0.725000X0*%
%TD*%
%TA.AperFunction,ComponentPad*%
%ADD24O,1.700000X1.950000*%
%TD*%
%TA.AperFunction,ComponentPad*%
%ADD25RoundRect,0.250000X-0.600000X-0.725000X0.600000X-0.725000X0.600000X0.725000X-0.600000X0.725000X0*%
%TD*%
%TA.AperFunction,ComponentPad*%
%ADD26R,1.935000X1.935000*%
%TD*%
%TA.AperFunction,ComponentPad*%
%ADD27C,1.935000*%
%TD*%
%TA.AperFunction,ComponentPad*%
%ADD28R,2.000000X2.000000*%
%TD*%
%TA.AperFunction,ComponentPad*%
%ADD29C,2.000000*%
%TD*%
%TA.AperFunction,ViaPad*%
%ADD30C,0.600000*%
%TD*%
%TA.AperFunction,Conductor*%
%ADD31C,0.500000*%
%TD*%
%TA.AperFunction,Conductor*%
%ADD32C,0.250000*%
%TD*%
%ADD33C,0.080000*%
%ADD34C,0.200000*%
%ADD35C,0.100000*%
%ADD36C,0.150000*%
%ADD37C,0.254000*%
%ADD38C,0.120000*%
%ADD39C,0.127000*%
%TA.AperFunction,Profile*%
%ADD40C,0.050000*%
%TD*%
G04 APERTURE END LIST*
D10*
%TO.P,J7,1,Pin_1*%
%TO.N,Net-(J7-Pin_1)*%
X70477000Y-150807000D03*
D11*
%TO.P,J7,2,Pin_2*%
%TO.N,GND*%
X72977000Y-150807000D03*
%TD*%
D12*
%TO.P,R15,1*%
%TO.N,LED6*%
X98290000Y-140012000D03*
%TO.P,R15,2*%
%TO.N,Net-(J5-Pin_6)*%
X98290000Y-147632000D03*
%TD*%
D13*
%TO.P,J4,1,Pin_1*%
%TO.N,GND*%
X146931000Y-115501000D03*
D14*
%TO.P,J4,2,Pin_2*%
%TO.N,SIO4*%
X146931000Y-112961000D03*
%TO.P,J4,3,Pin_3*%
%TO.N,GND*%
X146931000Y-110421000D03*
%TO.P,J4,4,Pin_4*%
%TO.N,SIO3*%
X146931000Y-107881000D03*
%TO.P,J4,5,Pin_5*%
%TO.N,GND*%
X146931000Y-105341000D03*
%TO.P,J4,6,Pin_6*%
%TO.N,SIO2*%
X146931000Y-102801000D03*
%TO.P,J4,7,Pin_7*%
%TO.N,GND*%
X146931000Y-100261000D03*
%TO.P,J4,8,Pin_8*%
%TO.N,SIO1*%
X146931000Y-97721000D03*
%TD*%
D15*
%TO.P,C4,1*%
%TO.N,+9V*%
X139057000Y-59367000D03*
%TO.P,C4,2*%
%TO.N,GND*%
X139057000Y-61367000D03*
%TD*%
D12*
%TO.P,C9,1*%
%TO.N,GND*%
X133977000Y-65717000D03*
%TO.P,C9,2*%
%TO.N,+5V*%
X133977000Y-68217000D03*
%TD*%
%TO.P,R2,1*%
%TO.N,/VGND*%
X89948000Y-63575000D03*
%TO.P,R2,2*%
%TO.N,GND*%
X97568000Y-63575000D03*
%TD*%
D10*
%TO.P,J2,1,Pin_1*%
%TO.N,GND*%
X125869000Y-58969000D03*
D11*
%TO.P,J2,2,Pin_2*%
%TO.N,+9V*%
X128369000Y-58969000D03*
%TD*%
D12*
%TO.P,R10,1*%
%TO.N,LED1*%
X117340000Y-140012000D03*
%TO.P,R10,2*%
%TO.N,Net-(J5-Pin_1)*%
X117340000Y-147632000D03*
%TD*%
%TO.P,R5,1*%
%TO.N,Net-(U2A--)*%
X84447000Y-69400000D03*
%TO.P,R5,2*%
%TO.N,LINE_IN_L*%
X92067000Y-69400000D03*
%TD*%
%TO.P,R8,1*%
%TO.N,+3.3V*%
X90670000Y-147632000D03*
%TO.P,R8,2*%
%TO.N,SCL*%
X90670000Y-140012000D03*
%TD*%
%TO.P,R13,1*%
%TO.N,LED4*%
X105910000Y-140012000D03*
%TO.P,R13,2*%
%TO.N,Net-(J5-Pin_4)*%
X105910000Y-147632000D03*
%TD*%
D16*
%TO.P,J6,1,Pin_1*%
%TO.N,SDA*%
X145717000Y-87247000D03*
D17*
%TO.P,J6,2,Pin_2*%
%TO.N,SCL*%
X145717000Y-84747000D03*
%TO.P,J6,3,Pin_3*%
%TO.N,+3.3V*%
X145717000Y-82247000D03*
%TO.P,J6,4,Pin_4*%
%TO.N,GND*%
X145717000Y-79747000D03*
%TD*%
D13*
%TO.P,J9,1,Pin_1*%
%TO.N,Net-(J9-Pin_1)*%
X62222000Y-101277000D03*
D14*
%TO.P,J9,2,Pin_2*%
%TO.N,Net-(J9-Pin_2)*%
X62222000Y-98737000D03*
%TO.P,J9,3,Pin_3*%
%TO.N,GND*%
X62222000Y-96197000D03*
%TD*%
D12*
%TO.P,R3,1*%
%TO.N,/VGND*%
X92067000Y-75623000D03*
%TO.P,R3,2*%
%TO.N,Net-(U2A-+)*%
X84447000Y-75623000D03*
%TD*%
D18*
%TO.P,U7,0,0*%
%TO.N,Net-(J9-Pin_2)*%
X79367000Y-98737000D03*
%TO.P,U7,1,1*%
%TO.N,Net-(J9-Pin_1)*%
X79367000Y-101277000D03*
%TO.P,U7,2,2*%
%TO.N,unconnected-(U7-Pad2)*%
X79367000Y-103817000D03*
%TO.P,U7,3,3*%
%TO.N,unconnected-(U7-Pad3)*%
X79367000Y-106357000D03*
%TO.P,U7,3V,3V*%
%TO.N,unconnected-(U7-Pad3V)*%
X94607000Y-101277000D03*
%TO.P,U7,4,4*%
%TO.N,Net-(J7-Pin_1)*%
X79367000Y-108897000D03*
%TO.P,U7,5,5*%
%TO.N,Net-(J8-Pin_1)*%
X79367000Y-111437000D03*
%TO.P,U7,5V,5V*%
%TO.N,+5V*%
X94607000Y-96197000D03*
%TO.P,U7,6,MEMCS*%
%TO.N,unconnected-(U7-MEMCS-Pad6)*%
X79367000Y-113977000D03*
%TO.P,U7,7,OUT1A*%
%TO.N,LED5*%
X79367000Y-116517000D03*
%TO.P,U7,8,IN1*%
%TO.N,LED6*%
X79367000Y-119057000D03*
%TO.P,U7,9,9*%
%TO.N,unconnected-(U7-Pad9)*%
X79367000Y-121597000D03*
%TO.P,U7,10,SDCS*%
%TO.N,unconnected-(U7-SDCS-Pad10)*%
X79367000Y-124137000D03*
%TO.P,U7,11,MOSI*%
%TO.N,unconnected-(U7-MOSI-Pad11)*%
X79367000Y-126677000D03*
%TO.P,U7,12,MISO*%
%TO.N,unconnected-(U7-MISO-Pad12)*%
X79367000Y-129217000D03*
%TO.P,U7,13,SCK*%
%TO.N,unconnected-(U7-SCK-Pad13)*%
X94607000Y-129217000D03*
%TO.P,U7,14,14*%
%TO.N,SIO3*%
X94607000Y-126677000D03*
%TO.P,U7,15,VOL15_A1*%
%TO.N,SIO4*%
X94607000Y-124137000D03*
%TO.P,U7,16,16*%
%TO.N,SDA*%
X94607000Y-121597000D03*
%TO.P,U7,17,17*%
%TO.N,SCL*%
X94607000Y-119057000D03*
%TO.P,U7,18,SDA*%
%TO.N,unconnected-(U7-SDA-Pad18)*%
X94607000Y-116517000D03*
%TO.P,U7,19,SCL*%
%TO.N,unconnected-(U7-SCL-Pad19)*%
X94607000Y-113977000D03*
%TO.P,U7,20,LRCLK1*%
%TO.N,unconnected-(U7-LRCLK1-Pad20)*%
X94607000Y-111437000D03*
%TO.P,U7,21,BCLK1*%
%TO.N,unconnected-(U7-BCLK1-Pad21)*%
X94607000Y-108897000D03*
%TO.P,U7,22,22*%
%TO.N,unconnected-(U7-Pad22)*%
X94607000Y-106357000D03*
%TO.P,U7,23,MCLK1*%
%TO.N,unconnected-(U7-MCLK1-Pad23)*%
X94607000Y-103817000D03*
%TO.P,U7,G,G*%
%TO.N,GND*%
X94607000Y-98737000D03*
%TO.P,U7,GND,GND*%
X79367000Y-96197000D03*
%TO.P,U7,GND_MIC,MIC_GND*%
%TO.N,unconnected-(U7-MIC_GND-PadGND_MIC)*%
X86987000Y-96197000D03*
%TO.P,U7,INGND1,INGND1*%
%TO.N,GND*%
X100957000Y-107627000D03*
%TO.P,U7,INGND2,INGND2*%
%TO.N,unconnected-(U7-PadINGND2)*%
X100957000Y-110167000D03*
%TO.P,U7,INL,INL*%
%TO.N,LINE_IN_L*%
X98417000Y-107627000D03*
%TO.P,U7,INR,INR*%
%TO.N,unconnected-(U7-PadINR)*%
X98417000Y-110167000D03*
%TO.P,U7,MIC,MIC*%
%TO.N,unconnected-(U7-PadMIC)*%
X89527000Y-96197000D03*
%TO.P,U7,OUTGND,OUTGND*%
%TO.N,GND*%
X98417000Y-115247000D03*
%TO.P,U7,OUTL,OUTL*%
%TO.N,LINE_OUT_L*%
X98417000Y-117787000D03*
%TO.P,U7,OUTR,OUTR*%
%TO.N,unconnected-(U7-PadOUTR)*%
X98417000Y-112707000D03*
D19*
%TO.P,U7,S1*%
%TO.N,N/C*%
X100322000Y-98102000D03*
%TO.P,U7,S2*%
X100322000Y-127312000D03*
%TO.P,U7,S3*%
X69842000Y-114612000D03*
D18*
%TO.P,U7,UNUSED1*%
X100957000Y-112707000D03*
%TO.P,U7,UNUSED2*%
X100957000Y-117787000D03*
%TO.P,U7,VOL,VOL*%
%TO.N,unconnected-(U7-PadVOL)*%
X71112000Y-120962000D03*
%TO.P,U7,VOL_3.3V,VOL_3.3V*%
%TO.N,unconnected-(U7-PadVOL_3.3V)*%
X68572000Y-120962000D03*
%TO.P,U7,VOL_GND,VOL_GND*%
%TO.N,unconnected-(U7-PadVOL_GND)*%
X73652000Y-120962000D03*
%TD*%
D20*
%TO.P,U1,1,-VO*%
%TO.N,Net-(J1-Pin_2)*%
X67523000Y-68384000D03*
D21*
%TO.P,U1,2,-SENSE*%
X67523000Y-70924000D03*
%TO.P,U1,3,GND*%
%TO.N,GND*%
X67523000Y-73464000D03*
%TO.P,U1,4,V_IN*%
%TO.N,LINE_OUT_L*%
X67523000Y-76004000D03*
%TO.P,U1,5,V-*%
%TO.N,GND*%
X75463000Y-76004000D03*
%TO.P,U1,6,V+*%
%TO.N,+9V*%
X75463000Y-73464000D03*
%TO.P,U1,7,+SENSE*%
%TO.N,Net-(J1-Pin_3)*%
X75463000Y-70924000D03*
%TO.P,U1,8,+VO*%
X75463000Y-68384000D03*
%TD*%
D12*
%TO.P,R6,1*%
%TO.N,+3.3V*%
X89527000Y-84005000D03*
%TO.P,R6,2*%
%TO.N,Net-(J10-Pin_1)*%
X81907000Y-84005000D03*
%TD*%
%TO.P,R4,1*%
%TO.N,Net-(J3-Pin_2)*%
X84447000Y-72448000D03*
%TO.P,R4,2*%
%TO.N,Net-(U2A--)*%
X92067000Y-72448000D03*
%TD*%
%TO.P,C1,1*%
%TO.N,+9V*%
X133977000Y-59367000D03*
%TO.P,C1,2*%
%TO.N,GND*%
X133977000Y-61867000D03*
%TD*%
D22*
%TO.P,U2,1*%
%TO.N,LINE_IN_L*%
X102994000Y-68257000D03*
D12*
%TO.P,U2,2,-*%
%TO.N,Net-(U2A--)*%
X102994000Y-70797000D03*
%TO.P,U2,3,+*%
%TO.N,Net-(U2A-+)*%
X102994000Y-73337000D03*
%TO.P,U2,4,V-*%
%TO.N,GND*%
X102994000Y-75877000D03*
%TO.P,U2,5,+*%
%TO.N,unconnected-(U2B-+-Pad5)*%
X110614000Y-75877000D03*
%TO.P,U2,6,-*%
%TO.N,unconnected-(U2B---Pad6)*%
X110614000Y-73337000D03*
%TO.P,U2,7*%
%TO.N,unconnected-(U2-Pad7)*%
X110614000Y-70797000D03*
%TO.P,U2,8,V+*%
%TO.N,+9V*%
X110614000Y-68257000D03*
%TD*%
D23*
%TO.P,J10,1,Pin_1*%
%TO.N,Net-(J10-Pin_1)*%
X76747000Y-85927000D03*
D24*
%TO.P,J10,2,Pin_2*%
%TO.N,Net-(J10-Pin_2)*%
X74247000Y-85927000D03*
%TO.P,J10,3,Pin_3*%
%TO.N,Net-(J10-Pin_3)*%
X71747000Y-85927000D03*
%TO.P,J10,4,Pin_4*%
%TO.N,GND*%
X69247000Y-85927000D03*
%TO.P,J10,5,Pin_5*%
X66747000Y-85927000D03*
%TD*%
D12*
%TO.P,R14,1*%
%TO.N,LED5*%
X102100000Y-140012000D03*
%TO.P,R14,2*%
%TO.N,Net-(J5-Pin_5)*%
X102100000Y-147632000D03*
%TD*%
D25*
%TO.P,J1,1,Pin_1*%
%TO.N,GND*%
X68866000Y-59223000D03*
D24*
%TO.P,J1,2,Pin_2*%
%TO.N,Net-(J1-Pin_2)*%
X71366000Y-59223000D03*
%TO.P,J1,3,Pin_3*%
%TO.N,Net-(J1-Pin_3)*%
X73866000Y-59223000D03*
%TD*%
D26*
%TO.P,U3,1,IN*%
%TO.N,+9V*%
X144518000Y-60637000D03*
D27*
%TO.P,U3,2,GND*%
%TO.N,GND*%
X144518000Y-63177000D03*
%TO.P,U3,3,OUT*%
%TO.N,+5V*%
X144518000Y-65717000D03*
%TD*%
D12*
%TO.P,R1,1*%
%TO.N,Net-(J3-Pin_3)*%
X97568000Y-59765000D03*
%TO.P,R1,2*%
%TO.N,/VGND*%
X89948000Y-59765000D03*
%TD*%
%TO.P,R7,1*%
%TO.N,+3.3V*%
X89527000Y-87677000D03*
%TO.P,R7,2*%
%TO.N,Net-(J10-Pin_2)*%
X81907000Y-87677000D03*
%TD*%
D25*
%TO.P,J3,1,Pin_1*%
%TO.N,GND*%
X104299000Y-59240000D03*
D24*
%TO.P,J3,2,Pin_2*%
%TO.N,Net-(J3-Pin_2)*%
X106799000Y-59240000D03*
%TO.P,J3,3,Pin_3*%
%TO.N,Net-(J3-Pin_3)*%
X109299000Y-59240000D03*
%TD*%
D12*
%TO.P,C3,1*%
%TO.N,+9V*%
X113657000Y-68257000D03*
%TO.P,C3,2*%
%TO.N,GND*%
X113657000Y-70757000D03*
%TD*%
D10*
%TO.P,J8,1,Pin_1*%
%TO.N,Net-(J8-Pin_1)*%
X80637000Y-150807000D03*
D11*
%TO.P,J8,2,Pin_2*%
%TO.N,GND*%
X83137000Y-150807000D03*
%TD*%
D15*
%TO.P,C2,1*%
%TO.N,/VGND*%
X97004000Y-75750000D03*
%TO.P,C2,2*%
%TO.N,GND*%
X99004000Y-75750000D03*
%TD*%
D12*
%TO.P,R11,1*%
%TO.N,LED2*%
X113530000Y-140012000D03*
%TO.P,R11,2*%
%TO.N,Net-(J5-Pin_2)*%
X113530000Y-147632000D03*
%TD*%
D15*
%TO.P,C6,1*%
%TO.N,LINE_IN_L*%
X99004000Y-69400000D03*
%TO.P,C6,2*%
%TO.N,GND*%
X97004000Y-69400000D03*
%TD*%
D28*
%TO.P,U4,1,3V3*%
%TO.N,+3.3V*%
X139057000Y-120602000D03*
D29*
%TO.P,U4,2,GND*%
%TO.N,GND*%
X139057000Y-118062000D03*
%TO.P,U4,3,D15*%
%TO.N,unconnected-(U4-D15-Pad3)*%
X139057000Y-115522000D03*
%TO.P,U4,4,D2*%
%TO.N,unconnected-(U4-D2-Pad4)*%
X139057000Y-112982000D03*
%TO.P,U4,5,D4*%
%TO.N,unconnected-(U4-D4-Pad5)*%
X139057000Y-110442000D03*
%TO.P,U4,6,RX2*%
%TO.N,SIO2*%
X139057000Y-107902000D03*
%TO.P,U4,7,TX2*%
%TO.N,unconnected-(U4-TX2-Pad7)*%
X139057000Y-105362000D03*
%TO.P,U4,8,D5*%
%TO.N,unconnected-(U4-D5-Pad8)*%
X139057000Y-102822000D03*
%TO.P,U4,9,D18*%
%TO.N,unconnected-(U4-D18-Pad9)*%
X139057000Y-100282000D03*
%TO.P,U4,10,D19*%
%TO.N,unconnected-(U4-D19-Pad10)*%
X139057000Y-97742000D03*
%TO.P,U4,11,D21*%
%TO.N,SDA*%
X139057000Y-95202000D03*
%TO.P,U4,12,RX0*%
%TO.N,unconnected-(U4-RX0-Pad12)*%
X139057000Y-92662000D03*
%TO.P,U4,13,TX0*%
%TO.N,unconnected-(U4-TX0-Pad13)*%
X139057000Y-90122000D03*
%TO.P,U4,14,D22*%
%TO.N,SCL*%
X139057000Y-87582000D03*
%TO.P,U4,15,D23*%
%TO.N,unconnected-(U4-D23-Pad15)*%
X139057000Y-85042000D03*
%TO.P,U4,16,EN*%
%TO.N,unconnected-(U4-EN-Pad16)*%
X113657000Y-85042000D03*
%TO.P,U4,17,VP*%
%TO.N,unconnected-(U4-VP-Pad17)*%
X113657000Y-87582000D03*
%TO.P,U4,18,VN*%
%TO.N,unconnected-(U4-VN-Pad18)*%
X113657000Y-90122000D03*
%TO.P,U4,19,D34*%
%TO.N,Net-(J10-Pin_1)*%
X113657000Y-92662000D03*
%TO.P,U4,20,D35*%
%TO.N,Net-(J10-Pin_2)*%
X113657000Y-95202000D03*
%TO.P,U4,21,D32*%
%TO.N,Net-(J10-Pin_3)*%
X113657000Y-97742000D03*
%TO.P,U4,22,D33*%
%TO.N,SIO1*%
X113657000Y-100282000D03*
%TO.P,U4,23,D25*%
%TO.N,LED3*%
X113657000Y-102822000D03*
%TO.P,U4,24,D26*%
%TO.N,LED2*%
X113657000Y-105362000D03*
%TO.P,U4,25,D27*%
%TO.N,LED1*%
X113657000Y-107902000D03*
%TO.P,U4,26,D14*%
%TO.N,LED4*%
X113657000Y-110442000D03*
%TO.P,U4,27,D12*%
%TO.N,unconnected-(U4-D12-Pad27)*%
X113657000Y-112982000D03*
%TO.P,U4,28,D13*%
%TO.N,unconnected-(U4-D13-Pad28)*%
X113657000Y-115522000D03*
%TO.P,U4,29,GND*%
%TO.N,GND*%
X113657000Y-118062000D03*
%TO.P,U4,30,VIN*%
%TO.N,+5V*%
X113657000Y-120602000D03*
%TD*%
D15*
%TO.P,C5,1*%
%TO.N,+5V*%
X139057000Y-68257000D03*
%TO.P,C5,2*%
%TO.N,GND*%
X139057000Y-66257000D03*
%TD*%
D12*
%TO.P,R9,1*%
%TO.N,+3.3V*%
X94480000Y-147632000D03*
%TO.P,R9,2*%
%TO.N,SDA*%
X94480000Y-140012000D03*
%TD*%
D13*
%TO.P,J5,1,Pin_1*%
%TO.N,Net-(J5-Pin_1)*%
X112260000Y-153093000D03*
D14*
%TO.P,J5,2,Pin_2*%
%TO.N,Net-(J5-Pin_2)*%
X109720000Y-153093000D03*
%TO.P,J5,3,Pin_3*%
%TO.N,Net-(J5-Pin_3)*%
X107180000Y-153093000D03*
%TO.P,J5,4,Pin_4*%
%TO.N,Net-(J5-Pin_4)*%
X104640000Y-153093000D03*
%TO.P,J5,5,Pin_5*%
%TO.N,Net-(J5-Pin_5)*%
X102100000Y-153093000D03*
%TO.P,J5,6,Pin_6*%
%TO.N,Net-(J5-Pin_6)*%
X99560000Y-153093000D03*
%TO.P,J5,7,Pin_7*%
%TO.N,GND*%
X97020000Y-153093000D03*
%TO.P,J5,8,Pin_8*%
%TO.N,+3.3V*%
X94480000Y-153093000D03*
%TD*%
D12*
%TO.P,R12,1*%
%TO.N,LED3*%
X109720000Y-140012000D03*
%TO.P,R12,2*%
%TO.N,Net-(J5-Pin_3)*%
X109720000Y-147632000D03*
%TD*%
%TO.P,C7,1*%
%TO.N,+9V*%
X77970000Y-73611000D03*
%TO.P,C7,2*%
%TO.N,GND*%
X77970000Y-76111000D03*
%TD*%
D30*
%TO.N,GND*%
X122547000Y-63685000D03*
X141851000Y-57589000D03*
X148455000Y-57589000D03*
X141978000Y-63939000D03*
X142105000Y-69273000D03*
X131945000Y-57589000D03*
X136517000Y-63812000D03*
X122547000Y-69400000D03*
X136009000Y-69400000D03*
X132072000Y-63812000D03*
X122547000Y-57589000D03*
X148455000Y-63939000D03*
X136263000Y-57589000D03*
X131056000Y-69400000D03*
X148455000Y-69400000D03*
%TO.N,+5V*%
X109085000Y-126931000D03*
%TO.N,SIO4*%
X137660000Y-124010000D03*
%TO.N,LINE_IN_L*%
X103624000Y-84640000D03*
%TD*%
D31*
%TO.N,+9V*%
X84127000Y-77589000D02*
X104833000Y-77589000D01*
X106164000Y-69019000D02*
X106926000Y-68257000D01*
X77823000Y-73464000D02*
X77970000Y-73611000D01*
X106926000Y-68257000D02*
X110614000Y-68257000D01*
X80149000Y-73611000D02*
X84127000Y-77589000D01*
X104833000Y-77589000D02*
X106164000Y-76258000D01*
X141851000Y-59367000D02*
X139057000Y-59367000D01*
X133977000Y-59367000D02*
X133723000Y-59367000D01*
X77970000Y-73611000D02*
X80149000Y-73611000D01*
X128262000Y-59076000D02*
X128369000Y-58969000D01*
X113657000Y-68257000D02*
X124706000Y-68257000D01*
X124706000Y-68257000D02*
X128262000Y-64701000D01*
X113657000Y-68257000D02*
X110614000Y-68257000D01*
X144557000Y-60637000D02*
X143121000Y-60637000D01*
X143121000Y-60637000D02*
X141851000Y-59367000D01*
X133325000Y-58969000D02*
X128369000Y-58969000D01*
X106164000Y-76258000D02*
X106164000Y-69019000D01*
X139057000Y-59367000D02*
X133977000Y-59367000D01*
X128262000Y-64701000D02*
X128262000Y-59076000D01*
X75463000Y-73464000D02*
X77823000Y-73464000D01*
X133723000Y-59367000D02*
X133325000Y-58969000D01*
D32*
%TO.N,/VGND*%
X97004000Y-75750000D02*
X92194000Y-75750000D01*
X89948000Y-59765000D02*
X89948000Y-63575000D01*
X92194000Y-75750000D02*
X92067000Y-75623000D01*
D31*
%TO.N,+5V*%
X142017000Y-68257000D02*
X139057000Y-68257000D01*
X138168000Y-68257000D02*
X138128000Y-68217000D01*
X109085000Y-122613000D02*
X109085000Y-126931000D01*
X111096000Y-120602000D02*
X110609000Y-121089000D01*
X85717000Y-89177000D02*
X85717000Y-79687000D01*
X113657000Y-120602000D02*
X111096000Y-120602000D01*
X123904000Y-78290000D02*
X133977000Y-68217000D01*
X139057000Y-68257000D02*
X138168000Y-68257000D01*
X138128000Y-68217000D02*
X133977000Y-68217000D01*
X94607000Y-96197000D02*
X92737000Y-96197000D01*
X92737000Y-96197000D02*
X85717000Y-89177000D01*
X87114000Y-78290000D02*
X123904000Y-78290000D01*
X110609000Y-121089000D02*
X109085000Y-122613000D01*
X85717000Y-79687000D02*
X87114000Y-78290000D01*
X144557000Y-65717000D02*
X142017000Y-68257000D01*
D32*
%TO.N,Net-(J3-Pin_2)*%
X87368000Y-65336000D02*
X103497000Y-65336000D01*
X86479000Y-66225000D02*
X87368000Y-65336000D01*
X106799000Y-62034000D02*
X106799000Y-59581000D01*
X84447000Y-72448000D02*
X85865491Y-72448000D01*
X106799000Y-59581000D02*
X106458000Y-59240000D01*
X85865491Y-72448000D02*
X86479000Y-71834491D01*
X86479000Y-71834491D02*
X86479000Y-66225000D01*
X103497000Y-65336000D02*
X106799000Y-62034000D01*
%TO.N,Net-(J3-Pin_3)*%
X107775000Y-57716000D02*
X98798000Y-57716000D01*
X97568000Y-58946000D02*
X97568000Y-59765000D01*
X98798000Y-57716000D02*
X97568000Y-58946000D01*
X109299000Y-59240000D02*
X107775000Y-57716000D01*
%TO.N,SDA*%
X93337000Y-121597000D02*
X94607000Y-121597000D01*
X94480000Y-140012000D02*
X92194000Y-137726000D01*
X92194000Y-137726000D02*
X92194000Y-122740000D01*
X92194000Y-122740000D02*
X93337000Y-121597000D01*
%TO.N,+3.3V*%
X94480000Y-147632000D02*
X90670000Y-147632000D01*
X89527000Y-84005000D02*
X89527000Y-87677000D01*
X140941000Y-120602000D02*
X141978000Y-119565000D01*
X99746000Y-78866000D02*
X140251891Y-78866000D01*
X141978000Y-119565000D02*
X141978000Y-84132000D01*
X143231891Y-81846000D02*
X145316000Y-81846000D01*
X132637000Y-142241000D02*
X135120000Y-139758000D01*
X89527000Y-84005000D02*
X94607000Y-84005000D01*
X143502000Y-82608000D02*
X145356000Y-82608000D01*
X94480000Y-147632000D02*
X94480000Y-153093000D01*
X140251891Y-78866000D02*
X143231891Y-81846000D01*
X94607000Y-84005000D02*
X99746000Y-78866000D01*
X101002370Y-142241000D02*
X132637000Y-142241000D01*
X95611370Y-147632000D02*
X101002370Y-142241000D01*
X145316000Y-81846000D02*
X145717000Y-82247000D01*
X135120000Y-139758000D02*
X135120000Y-122486000D01*
X137004000Y-120602000D02*
X139057000Y-120602000D01*
X139057000Y-120602000D02*
X140941000Y-120602000D01*
X145356000Y-82608000D02*
X145717000Y-82247000D01*
X94480000Y-147632000D02*
X95611370Y-147632000D01*
X141978000Y-84132000D02*
X143502000Y-82608000D01*
X135120000Y-122486000D02*
X137004000Y-120602000D01*
%TO.N,SCL*%
X92448000Y-119057000D02*
X94607000Y-119057000D01*
X90670000Y-140012000D02*
X90670000Y-120835000D01*
X90670000Y-120835000D02*
X92448000Y-119057000D01*
%TO.N,Net-(J7-Pin_1)*%
X70477000Y-127947000D02*
X75430000Y-122994000D01*
X75430000Y-122994000D02*
X75430000Y-112834000D01*
X70477000Y-150807000D02*
X70477000Y-127947000D01*
X75430000Y-112834000D02*
X79367000Y-108897000D01*
%TO.N,Net-(J8-Pin_1)*%
X80637000Y-146235000D02*
X80637000Y-150807000D01*
X76319000Y-141917000D02*
X80637000Y-146235000D01*
X76319000Y-114485000D02*
X76319000Y-141917000D01*
X79367000Y-111437000D02*
X76319000Y-114485000D01*
%TO.N,Net-(J9-Pin_2)*%
X62857000Y-98737000D02*
X79367000Y-98737000D01*
%TO.N,LED2*%
X118775016Y-141790000D02*
X119753000Y-140812016D01*
X114038000Y-141790000D02*
X118775016Y-141790000D01*
X113530000Y-140012000D02*
X113530000Y-141282000D01*
X119753000Y-109278000D02*
X115837000Y-105362000D01*
X119753000Y-140812016D02*
X119753000Y-109278000D01*
X113530000Y-141282000D02*
X114038000Y-141790000D01*
X115837000Y-105362000D02*
X113657000Y-105362000D01*
%TO.N,LED5*%
X78605000Y-116517000D02*
X79367000Y-116517000D01*
X77335000Y-140520000D02*
X77335000Y-117787000D01*
X98544000Y-143568000D02*
X80383000Y-143568000D01*
X102100000Y-140012000D02*
X98544000Y-143568000D01*
X80383000Y-143568000D02*
X77335000Y-140520000D01*
X77335000Y-117787000D02*
X78605000Y-116517000D01*
%TO.N,LED4*%
X105910000Y-114993000D02*
X110482000Y-110421000D01*
X110503000Y-110442000D02*
X113657000Y-110442000D01*
X110482000Y-110421000D02*
X110503000Y-110442000D01*
X105910000Y-140012000D02*
X105910000Y-114993000D01*
%TO.N,LED1*%
X117340000Y-110040000D02*
X115181000Y-107881000D01*
X115160000Y-107902000D02*
X113657000Y-107902000D01*
X117340000Y-140012000D02*
X117340000Y-110040000D01*
X115181000Y-107881000D02*
X115160000Y-107902000D01*
%TO.N,LED3*%
X104259000Y-141409000D02*
X104259000Y-105976000D01*
X109720000Y-140012000D02*
X108594000Y-141138000D01*
X107413000Y-102822000D02*
X113657000Y-102822000D01*
X104259000Y-105976000D02*
X107413000Y-102822000D01*
X104640000Y-141790000D02*
X104259000Y-141409000D01*
X108594000Y-141392000D02*
X108196000Y-141790000D01*
X108196000Y-141790000D02*
X104640000Y-141790000D01*
X108594000Y-141138000D02*
X108594000Y-141392000D01*
%TO.N,LED6*%
X85590000Y-142044000D02*
X86352000Y-142806000D01*
X98290000Y-142298000D02*
X98290000Y-140012000D01*
X85590000Y-125280000D02*
X85590000Y-142044000D01*
X86352000Y-142806000D02*
X97528000Y-142806000D01*
X97655000Y-142933000D02*
X98290000Y-142298000D01*
X79367000Y-119057000D02*
X85590000Y-125280000D01*
X97528000Y-142806000D02*
X97655000Y-142933000D01*
%TO.N,SIO4*%
X137660000Y-124010000D02*
X143502000Y-124010000D01*
X146804000Y-113088000D02*
X146931000Y-112961000D01*
X143502000Y-124010000D02*
X144518000Y-122994000D01*
X145534000Y-113088000D02*
X146804000Y-113088000D01*
X144518000Y-114104000D02*
X145534000Y-113088000D01*
X144518000Y-122994000D02*
X144518000Y-114104000D01*
%TO.N,LINE_IN_L*%
X97607000Y-70797000D02*
X93464000Y-70797000D01*
X99004000Y-69400000D02*
X99560000Y-69400000D01*
X98417000Y-105468000D02*
X98417000Y-107627000D01*
X103624000Y-100261000D02*
X98417000Y-105468000D01*
X100703000Y-68257000D02*
X102994000Y-68257000D01*
X93464000Y-70797000D02*
X92067000Y-69400000D01*
X103624000Y-84640000D02*
X103624000Y-100261000D01*
X99560000Y-69400000D02*
X100703000Y-68257000D01*
X99004000Y-69400000D02*
X97607000Y-70797000D01*
%TO.N,Net-(J1-Pin_2)*%
X67523000Y-68384000D02*
X67523000Y-70924000D01*
X67523000Y-66258000D02*
X67523000Y-68384000D01*
X71366000Y-62415000D02*
X67523000Y-66258000D01*
X71366000Y-59223000D02*
X71366000Y-62415000D01*
%TO.N,Net-(J1-Pin_3)*%
X75463000Y-70924000D02*
X75463000Y-68384000D01*
X73866000Y-66787000D02*
X73866000Y-59223000D01*
X75463000Y-68384000D02*
X73866000Y-66787000D01*
%TO.N,Net-(J9-Pin_1)*%
X62857000Y-101277000D02*
X79367000Y-101277000D01*
%TO.N,Net-(U2A-+)*%
X101846000Y-73337000D02*
X101211000Y-73972000D01*
X101211000Y-73972000D02*
X87622000Y-73972000D01*
X85971000Y-75623000D02*
X84447000Y-75623000D01*
X87622000Y-73972000D02*
X85971000Y-75623000D01*
X102994000Y-73337000D02*
X101846000Y-73337000D01*
%TO.N,Net-(U2A--)*%
X99306000Y-72448000D02*
X100957000Y-70797000D01*
X100957000Y-70797000D02*
X102994000Y-70797000D01*
X92829000Y-72448000D02*
X99306000Y-72448000D01*
%TO.N,Net-(J5-Pin_3)*%
X107180000Y-150172000D02*
X107180000Y-153093000D01*
X109720000Y-147632000D02*
X107180000Y-150172000D01*
%TO.N,Net-(J5-Pin_2)*%
X109974000Y-152839000D02*
X109720000Y-153093000D01*
X113530000Y-147632000D02*
X109974000Y-151188000D01*
X109974000Y-151188000D02*
X109974000Y-152839000D01*
%TO.N,Net-(J5-Pin_6)*%
X98290000Y-147632000D02*
X98290000Y-151823000D01*
X98290000Y-151823000D02*
X99560000Y-153093000D01*
%TO.N,Net-(J5-Pin_5)*%
X102100000Y-147632000D02*
X102100000Y-153093000D01*
%TO.N,Net-(J5-Pin_1)*%
X117340000Y-147632000D02*
X112260000Y-152712000D01*
X112260000Y-152712000D02*
X112260000Y-153093000D01*
%TO.N,Net-(J5-Pin_4)*%
X105910000Y-151823000D02*
X104640000Y-153093000D01*
X105910000Y-147632000D02*
X105910000Y-151823000D01*
%TD*%
%TA.AperFunction,Conductor*%
%TO.N,GND*%
G36*
X132932617Y-59439185D02*
G01*
X132978372Y-59491989D01*
X132987195Y-59519309D01*
X133014947Y-59658827D01*
X133014950Y-59658839D01*
X133090364Y-59840907D01*
X133090371Y-59840920D01*
X133199860Y-60004781D01*
X133199863Y-60004785D01*
X133339214Y-60144136D01*
X133339218Y-60144139D01*
X133503079Y-60253628D01*
X133503092Y-60253635D01*
X133673927Y-60324396D01*
X133685165Y-60329051D01*
X133685169Y-60329051D01*
X133685170Y-60329052D01*
X133754112Y-60342766D01*
X133816023Y-60375151D01*
X133850597Y-60435867D01*
X133846857Y-60505636D01*
X133805990Y-60562308D01*
X133749318Y-60586856D01*
X133672582Y-60599009D01*
X133477968Y-60662244D01*
X133295644Y-60755143D01*
X133251077Y-60787523D01*
X133251077Y-60787524D01*
X133930554Y-61467000D01*
X133924339Y-61467000D01*
X133822606Y-61494259D01*
X133731394Y-61546920D01*
X133656920Y-61621394D01*
X133604259Y-61712606D01*
X133577000Y-61814339D01*
X133577000Y-61820553D01*
X132897524Y-61141077D01*
X132897523Y-61141077D01*
X132865143Y-61185644D01*
X132772244Y-61367968D01*
X132709009Y-61562582D01*
X132677000Y-61764682D01*
X132677000Y-61969317D01*
X132709009Y-62171417D01*
X132772244Y-62366031D01*
X132865141Y-62548350D01*
X132865147Y-62548359D01*
X132897523Y-62592921D01*
X132897524Y-62592922D01*
X133577000Y-61913446D01*
X133577000Y-61919661D01*
X133604259Y-62021394D01*
X133656920Y-62112606D01*
X133731394Y-62187080D01*
X133822606Y-62239741D01*
X133924339Y-62267000D01*
X133930553Y-62267000D01*
X133251076Y-62946474D01*
X133295650Y-62978859D01*
X133477968Y-63071755D01*
X133672582Y-63134990D01*
X133874683Y-63167000D01*
X134079317Y-63167000D01*
X134281417Y-63134990D01*
X134476031Y-63071755D01*
X134658349Y-62978859D01*
X134689377Y-62956316D01*
X134702921Y-62946474D01*
X134023447Y-62267000D01*
X134029661Y-62267000D01*
X134131394Y-62239741D01*
X134222606Y-62187080D01*
X134297080Y-62112606D01*
X134349741Y-62021394D01*
X134377000Y-61919661D01*
X134377000Y-61913447D01*
X135056474Y-62592921D01*
X135088859Y-62548349D01*
X135181755Y-62366031D01*
X135202141Y-62303289D01*
X138474261Y-62303289D01*
X138474262Y-62303290D01*
X138480471Y-62307801D01*
X138634742Y-62386408D01*
X138799415Y-62439914D01*
X138970429Y-62467000D01*
X139143571Y-62467000D01*
X139314584Y-62439914D01*
X139479257Y-62386408D01*
X139633525Y-62307803D01*
X139639736Y-62303289D01*
X139639737Y-62303289D01*
X139057001Y-61720553D01*
X139057000Y-61720553D01*
X138474261Y-62303289D01*
X135202141Y-62303289D01*
X135229948Y-62217711D01*
X135244990Y-62171417D01*
X135277000Y-61969317D01*
X135277000Y-61764682D01*
X135244990Y-61562582D01*
X135181755Y-61367968D01*
X135163352Y-61331851D01*
X135137151Y-61280428D01*
X137957000Y-61280428D01*
X137957000Y-61453571D01*
X137984085Y-61624584D01*
X138037592Y-61789259D01*
X138116196Y-61943525D01*
X138120709Y-61949736D01*
X138120709Y-61949737D01*
X138703446Y-61367001D01*
X138703446Y-61366999D01*
X138663951Y-61327504D01*
X138757000Y-61327504D01*
X138757000Y-61406496D01*
X138777444Y-61482796D01*
X138816940Y-61551205D01*
X138872795Y-61607060D01*
X138941204Y-61646556D01*
X139017504Y-61667000D01*
X139096496Y-61667000D01*
X139172796Y-61646556D01*
X139241205Y-61607060D01*
X139297060Y-61551205D01*
X139336556Y-61482796D01*
X139357000Y-61406496D01*
X139357000Y-61366999D01*
X139410553Y-61366999D01*
X139410553Y-61367000D01*
X139993289Y-61949736D01*
X139997803Y-61943525D01*
X140076408Y-61789257D01*
X140129914Y-61624584D01*
X140157000Y-61453571D01*
X140157000Y-61280428D01*
X140129914Y-61109415D01*
X140076408Y-60944742D01*
X139997801Y-60790471D01*
X139993290Y-60784262D01*
X139993289Y-60784261D01*
X139410553Y-61366999D01*
X139357000Y-61366999D01*
X139357000Y-61327504D01*
X139336556Y-61251204D01*
X139297060Y-61182795D01*
X139241205Y-61126940D01*
X139172796Y-61087444D01*
X139096496Y-61067000D01*
X139017504Y-61067000D01*
X138941204Y-61087444D01*
X138872795Y-61126940D01*
X138816940Y-61182795D01*
X138777444Y-61251204D01*
X138757000Y-61327504D01*
X138663951Y-61327504D01*
X138120709Y-60784261D01*
X138120708Y-60784261D01*
X138116203Y-60790463D01*
X138116193Y-60790480D01*
X138037592Y-60944740D01*
X137984085Y-61109415D01*
X137957000Y-61280428D01*
X135137151Y-61280428D01*
X135088859Y-61185650D01*
X135056474Y-61141077D01*
X135056474Y-61141076D01*
X134377000Y-61820551D01*
X134377000Y-61814339D01*
X134349741Y-61712606D01*
X134297080Y-61621394D01*
X134222606Y-61546920D01*
X134131394Y-61494259D01*
X134029661Y-61467000D01*
X134023446Y-61467000D01*
X134702922Y-60787524D01*
X134702921Y-60787523D01*
X134658359Y-60755147D01*
X134658350Y-60755141D01*
X134476031Y-60662244D01*
X134281417Y-60599009D01*
X134204681Y-60586856D01*
X134141546Y-60556927D01*
X134104615Y-60497615D01*
X134105613Y-60427753D01*
X134144223Y-60369520D01*
X134199888Y-60342766D01*
X134229092Y-60336956D01*
X134268835Y-60329051D01*
X134450914Y-60253632D01*
X134614782Y-60144139D01*
X134754139Y-60004782D01*
X134800783Y-59934974D01*
X134842454Y-59872610D01*
X134896066Y-59827804D01*
X134945556Y-59817500D01*
X138328982Y-59817500D01*
X138396021Y-59837185D01*
X138432086Y-59872612D01*
X138435211Y-59877290D01*
X138546707Y-59988786D01*
X138546711Y-59988789D01*
X138677814Y-60076390D01*
X138677823Y-60076395D01*
X138715265Y-60091904D01*
X138769668Y-60135745D01*
X138791733Y-60202039D01*
X138774454Y-60269738D01*
X138723317Y-60317349D01*
X138706131Y-60324396D01*
X138634740Y-60347592D01*
X138480480Y-60426193D01*
X138480463Y-60426203D01*
X138474261Y-60430708D01*
X138474261Y-60430709D01*
X139057000Y-61013446D01*
X139057001Y-61013446D01*
X139639737Y-60430709D01*
X139633525Y-60426196D01*
X139479257Y-60347591D01*
X139407869Y-60324396D01*
X139350193Y-60284958D01*
X139322995Y-60220600D01*
X139334910Y-60151753D01*
X139382154Y-60100278D01*
X139398735Y-60091904D01*
X139436173Y-60076397D01*
X139436176Y-60076395D01*
X139436179Y-60076394D01*
X139567289Y-59988789D01*
X139678789Y-59877289D01*
X139681914Y-59872611D01*
X139735525Y-59827806D01*
X139785018Y-59817500D01*
X141613035Y-59817500D01*
X141680074Y-59837185D01*
X141700716Y-59853819D01*
X142844386Y-60997489D01*
X142947113Y-61056799D01*
X142971321Y-61063284D01*
X142971324Y-61063286D01*
X142971325Y-61063286D01*
X142985186Y-61067000D01*
X143061691Y-61087500D01*
X143226000Y-61087500D01*
X143293039Y-61107185D01*
X143338794Y-61159989D01*
X143350000Y-61211500D01*
X143350000Y-61624252D01*
X143361631Y-61682729D01*
X143361632Y-61682730D01*
X143405947Y-61749052D01*
X143472269Y-61793367D01*
X143472270Y-61793368D01*
X143530747Y-61804999D01*
X143530750Y-61805000D01*
X143551604Y-61805000D01*
X143618643Y-61824685D01*
X143664398Y-61877489D01*
X143675222Y-61938730D01*
X143672161Y-61977608D01*
X144274338Y-62579784D01*
X144212478Y-62605408D01*
X144106836Y-62675996D01*
X144016996Y-62765836D01*
X143946408Y-62871478D01*
X143920784Y-62933337D01*
X143318608Y-62331161D01*
X143318606Y-62331161D01*
X143262883Y-62407858D01*
X143158013Y-62613674D01*
X143158012Y-62613677D01*
X143086635Y-62833358D01*
X143050500Y-63061505D01*
X143050500Y-63292494D01*
X143086635Y-63520641D01*
X143158012Y-63740322D01*
X143158013Y-63740325D01*
X143262881Y-63946138D01*
X143318607Y-64022837D01*
X143318608Y-64022838D01*
X143920784Y-63420661D01*
X143946408Y-63482522D01*
X144016996Y-63588164D01*
X144106836Y-63678004D01*
X144212478Y-63748592D01*
X144274337Y-63774215D01*
X143672160Y-64376391D01*
X143748861Y-64432118D01*
X143892145Y-64505125D01*
X143942941Y-64553099D01*
X143959736Y-64620920D01*
X143937199Y-64687055D01*
X143908735Y-64715928D01*
X143757105Y-64826093D01*
X143757100Y-64826097D01*
X143627097Y-64956100D01*
X143627093Y-64956105D01*
X143519039Y-65104830D01*
X143435570Y-65268645D01*
X143378760Y-65443488D01*
X143378760Y-65443491D01*
X143350000Y-65625076D01*
X143350000Y-65808923D01*
X143378760Y-65990508D01*
X143378761Y-65990515D01*
X143420910Y-66120237D01*
X143422905Y-66190078D01*
X143390660Y-66246235D01*
X141866716Y-67770181D01*
X141805393Y-67803666D01*
X141779035Y-67806500D01*
X139785018Y-67806500D01*
X139717979Y-67786815D01*
X139681914Y-67751388D01*
X139678788Y-67746709D01*
X139567292Y-67635213D01*
X139567288Y-67635210D01*
X139436185Y-67547609D01*
X139436180Y-67547607D01*
X139436179Y-67547606D01*
X139418779Y-67540398D01*
X139398733Y-67532095D01*
X139344330Y-67488253D01*
X139322266Y-67421958D01*
X139339546Y-67354259D01*
X139390684Y-67306649D01*
X139407870Y-67299603D01*
X139479253Y-67276409D01*
X139633525Y-67197803D01*
X139639736Y-67193289D01*
X139639737Y-67193289D01*
X139057001Y-66610553D01*
X139057000Y-66610553D01*
X138474261Y-67193289D01*
X138474262Y-67193290D01*
X138480471Y-67197801D01*
X138634744Y-67276408D01*
X138706130Y-67299603D01*
X138763805Y-67339040D01*
X138791004Y-67403398D01*
X138779090Y-67472245D01*
X138731846Y-67523721D01*
X138715267Y-67532094D01*
X138677826Y-67547603D01*
X138677814Y-67547609D01*
X138546711Y-67635210D01*
X138546707Y-67635213D01*
X138435213Y-67746707D01*
X138431347Y-67751419D01*
X138430255Y-67750523D01*
X138417344Y-67761309D01*
X138402119Y-67779749D01*
X138391022Y-67783296D01*
X138382078Y-67790768D01*
X138358345Y-67793743D01*
X138335568Y-67801025D01*
X138317495Y-67798864D01*
X138312751Y-67799459D01*
X138300523Y-67796835D01*
X138277674Y-67790713D01*
X138232491Y-67778606D01*
X138187309Y-67766500D01*
X138187308Y-67766500D01*
X134945556Y-67766500D01*
X134878517Y-67746815D01*
X134842454Y-67711390D01*
X134754142Y-67579222D01*
X134754136Y-67579214D01*
X134614785Y-67439863D01*
X134614781Y-67439860D01*
X134450920Y-67330371D01*
X134450907Y-67330364D01*
X134268839Y-67254950D01*
X134268830Y-67254947D01*
X134199886Y-67241233D01*
X134137976Y-67208847D01*
X134103402Y-67148131D01*
X134107143Y-67078361D01*
X134148010Y-67021690D01*
X134204682Y-66997142D01*
X134281423Y-66984988D01*
X134476031Y-66921755D01*
X134658349Y-66828859D01*
X134702921Y-66796474D01*
X134023447Y-66117000D01*
X134029661Y-66117000D01*
X134131394Y-66089741D01*
X134222606Y-66037080D01*
X134297080Y-65962606D01*
X134349741Y-65871394D01*
X134377000Y-65769661D01*
X134377000Y-65763447D01*
X135056474Y-66442921D01*
X135088859Y-66398349D01*
X135181755Y-66216031D01*
X135196573Y-66170428D01*
X137957000Y-66170428D01*
X137957000Y-66343571D01*
X137984085Y-66514584D01*
X138037592Y-66679259D01*
X138116196Y-66833525D01*
X138120709Y-66839736D01*
X138120709Y-66839737D01*
X138703446Y-66257001D01*
X138703446Y-66256999D01*
X138663951Y-66217504D01*
X138757000Y-66217504D01*
X138757000Y-66296496D01*
X138777444Y-66372796D01*
X138816940Y-66441205D01*
X138872795Y-66497060D01*
X138941204Y-66536556D01*
X139017504Y-66557000D01*
X139096496Y-66557000D01*
X139172796Y-66536556D01*
X139241205Y-66497060D01*
X139297060Y-66441205D01*
X139336556Y-66372796D01*
X139357000Y-66296496D01*
X139357000Y-66256999D01*
X139410553Y-66256999D01*
X139410553Y-66257000D01*
X139993289Y-66839736D01*
X139997803Y-66833525D01*
X140076408Y-66679257D01*
X140129914Y-66514584D01*
X140157000Y-66343571D01*
X140157000Y-66170428D01*
X140129914Y-65999415D01*
X140076408Y-65834742D01*
X139997801Y-65680471D01*
X139993290Y-65674262D01*
X139993289Y-65674261D01*
X139410553Y-66256999D01*
X139357000Y-66256999D01*
X139357000Y-66217504D01*
X139336556Y-66141204D01*
X139297060Y-66072795D01*
X139241205Y-66016940D01*
X139172796Y-65977444D01*
X139096496Y-65957000D01*
X139017504Y-65957000D01*
X138941204Y-65977444D01*
X138872795Y-66016940D01*
X138816940Y-66072795D01*
X138777444Y-66141204D01*
X138757000Y-66217504D01*
X138663951Y-66217504D01*
X138120709Y-65674261D01*
X138120708Y-65674261D01*
X138116203Y-65680463D01*
X138116193Y-65680480D01*
X138037592Y-65834740D01*
X137984085Y-65999415D01*
X137957000Y-66170428D01*
X135196573Y-66170428D01*
X135210607Y-66127237D01*
X135210607Y-66127236D01*
X135244989Y-66021421D01*
X135244989Y-66021418D01*
X135277000Y-65819317D01*
X135277000Y-65614682D01*
X135244989Y-65412581D01*
X135244989Y-65412578D01*
X135242944Y-65406284D01*
X135215138Y-65320708D01*
X138474261Y-65320708D01*
X138474261Y-65320709D01*
X139057000Y-65903446D01*
X139057001Y-65903446D01*
X139639737Y-65320709D01*
X139633525Y-65316196D01*
X139479259Y-65237592D01*
X139314584Y-65184085D01*
X139143571Y-65157000D01*
X138970429Y-65157000D01*
X138799415Y-65184085D01*
X138634740Y-65237592D01*
X138480480Y-65316193D01*
X138480463Y-65316203D01*
X138474261Y-65320708D01*
X135215138Y-65320708D01*
X135181755Y-65217968D01*
X135088859Y-65035650D01*
X135056474Y-64991077D01*
X135056474Y-64991076D01*
X134377000Y-65670551D01*
X134377000Y-65664339D01*
X134349741Y-65562606D01*
X134297080Y-65471394D01*
X134222606Y-65396920D01*
X134131394Y-65344259D01*
X134029661Y-65317000D01*
X134023446Y-65317000D01*
X134702922Y-64637524D01*
X134702921Y-64637523D01*
X134658359Y-64605147D01*
X134658350Y-64605141D01*
X134476031Y-64512244D01*
X134281417Y-64449009D01*
X134079317Y-64417000D01*
X133874683Y-64417000D01*
X133672582Y-64449009D01*
X133477968Y-64512244D01*
X133295644Y-64605143D01*
X133251077Y-64637523D01*
X133251077Y-64637524D01*
X133930554Y-65317000D01*
X133924339Y-65317000D01*
X133822606Y-65344259D01*
X133731394Y-65396920D01*
X133656920Y-65471394D01*
X133604259Y-65562606D01*
X133577000Y-65664339D01*
X133577000Y-65670553D01*
X132897524Y-64991077D01*
X132897523Y-64991077D01*
X132865143Y-65035644D01*
X132772244Y-65217968D01*
X132709009Y-65412582D01*
X132677000Y-65614682D01*
X132677000Y-65819317D01*
X132709009Y-66021417D01*
X132772244Y-66216031D01*
X132865141Y-66398350D01*
X132865147Y-66398359D01*
X132897523Y-66442921D01*
X132897524Y-66442922D01*
X133577000Y-65763446D01*
X133577000Y-65769661D01*
X133604259Y-65871394D01*
X133656920Y-65962606D01*
X133731394Y-66037080D01*
X133822606Y-66089741D01*
X133924339Y-66117000D01*
X133930553Y-66117000D01*
X133251076Y-66796474D01*
X133295650Y-66828859D01*
X133477968Y-66921755D01*
X133672576Y-66984988D01*
X133749317Y-66997142D01*
X133812452Y-67027071D01*
X133849384Y-67086383D01*
X133848386Y-67156245D01*
X133809777Y-67214478D01*
X133754113Y-67241233D01*
X133685169Y-67254947D01*
X133685160Y-67254950D01*
X133503092Y-67330364D01*
X133503079Y-67330371D01*
X133339218Y-67439860D01*
X133339214Y-67439863D01*
X133199863Y-67579214D01*
X133199860Y-67579218D01*
X133090371Y-67743079D01*
X133090364Y-67743092D01*
X133014950Y-67925160D01*
X133014947Y-67925170D01*
X132976500Y-68118456D01*
X132976500Y-68315545D01*
X133007511Y-68471448D01*
X133001284Y-68541039D01*
X132973575Y-68583320D01*
X131812215Y-69744681D01*
X131750892Y-69778166D01*
X131724534Y-69781000D01*
X122160486Y-69781000D01*
X122093447Y-69761315D01*
X122047692Y-69708511D01*
X122036486Y-69656975D01*
X122036547Y-69355575D01*
X122036655Y-68831472D01*
X122056353Y-68764439D01*
X122109167Y-68718695D01*
X122160655Y-68707500D01*
X124765308Y-68707500D01*
X124765309Y-68707500D01*
X124855673Y-68683286D01*
X124879887Y-68676799D01*
X124982614Y-68617489D01*
X128622489Y-64977614D01*
X128681798Y-64874887D01*
X128681799Y-64874886D01*
X128712500Y-64760309D01*
X128712500Y-60196624D01*
X128732185Y-60129585D01*
X128784989Y-60083830D01*
X128789048Y-60082063D01*
X128803215Y-60076195D01*
X128866598Y-60049941D01*
X129038655Y-59934977D01*
X129184977Y-59788655D01*
X129299941Y-59616598D01*
X129349875Y-59496046D01*
X129393716Y-59441644D01*
X129460010Y-59419579D01*
X129464436Y-59419500D01*
X132865578Y-59419500D01*
X132932617Y-59439185D01*
G37*
%TD.AperFunction*%
%TA.AperFunction,Conductor*%
G36*
X148652039Y-57227685D02*
G01*
X148697794Y-57280489D01*
X148709000Y-57332000D01*
X148709000Y-69657000D01*
X148689315Y-69724039D01*
X148636511Y-69769794D01*
X148585000Y-69781000D01*
X133349464Y-69781000D01*
X133282425Y-69761315D01*
X133236670Y-69708511D01*
X133226726Y-69639353D01*
X133255751Y-69575797D01*
X133261783Y-69569319D01*
X133610680Y-69220421D01*
X133672001Y-69186938D01*
X133722548Y-69186487D01*
X133817608Y-69205395D01*
X133878457Y-69217500D01*
X133878459Y-69217500D01*
X134075543Y-69217500D01*
X134205582Y-69191632D01*
X134268835Y-69179051D01*
X134450914Y-69103632D01*
X134614782Y-68994139D01*
X134754139Y-68854782D01*
X134839397Y-68727185D01*
X134842454Y-68722610D01*
X134896066Y-68677804D01*
X134945556Y-68667500D01*
X137947000Y-68667500D01*
X137986107Y-68675278D01*
X137986264Y-68674695D01*
X137994112Y-68676797D01*
X137994114Y-68676799D01*
X138108691Y-68707500D01*
X138328982Y-68707500D01*
X138396021Y-68727185D01*
X138432086Y-68762612D01*
X138435211Y-68767290D01*
X138546707Y-68878786D01*
X138546711Y-68878789D01*
X138677814Y-68966390D01*
X138677827Y-68966397D01*
X138823498Y-69026735D01*
X138823503Y-69026737D01*
X138978153Y-69057499D01*
X138978156Y-69057500D01*
X138978158Y-69057500D01*
X139135844Y-69057500D01*
X139135845Y-69057499D01*
X139290497Y-69026737D01*
X139436179Y-68966394D01*
X139567289Y-68878789D01*
X139678789Y-68767289D01*
X139681914Y-68762611D01*
X139735525Y-68717806D01*
X139785018Y-68707500D01*
X142076308Y-68707500D01*
X142076309Y-68707500D01*
X142166673Y-68683286D01*
X142190887Y-68676799D01*
X142293614Y-68617489D01*
X144047637Y-66863464D01*
X144108958Y-66829981D01*
X144173633Y-66833215D01*
X144244493Y-66856240D01*
X144426076Y-66885000D01*
X144426077Y-66885000D01*
X144609923Y-66885000D01*
X144609924Y-66885000D01*
X144791507Y-66856240D01*
X144791510Y-66856239D01*
X144791511Y-66856239D01*
X144966354Y-66799429D01*
X144966354Y-66799428D01*
X144966357Y-66799428D01*
X145130166Y-66715963D01*
X145278901Y-66607901D01*
X145408901Y-66477901D01*
X145516963Y-66329166D01*
X145600428Y-66165357D01*
X145642108Y-66037080D01*
X145657239Y-65990511D01*
X145657239Y-65990510D01*
X145657240Y-65990507D01*
X145686000Y-65808924D01*
X145686000Y-65625076D01*
X145657240Y-65443493D01*
X145657239Y-65443489D01*
X145657239Y-65443488D01*
X145600429Y-65268645D01*
X145600428Y-65268643D01*
X145516963Y-65104834D01*
X145434314Y-64991077D01*
X145408906Y-64956105D01*
X145408902Y-64956100D01*
X145278899Y-64826097D01*
X145278894Y-64826093D01*
X145127264Y-64715928D01*
X145084598Y-64660599D01*
X145078619Y-64590985D01*
X145111224Y-64529190D01*
X145143855Y-64505125D01*
X145287134Y-64432120D01*
X145363837Y-64376391D01*
X145363838Y-64376391D01*
X144761661Y-63774215D01*
X144823522Y-63748592D01*
X144929164Y-63678004D01*
X145019004Y-63588164D01*
X145089592Y-63482522D01*
X145115215Y-63420662D01*
X145717391Y-64022838D01*
X145717391Y-64022837D01*
X145773119Y-63946137D01*
X145877986Y-63740325D01*
X145877987Y-63740322D01*
X145949364Y-63520641D01*
X145985500Y-63292494D01*
X145985500Y-63061505D01*
X145949364Y-62833358D01*
X145877987Y-62613677D01*
X145877986Y-62613674D01*
X145773118Y-62407861D01*
X145717391Y-62331161D01*
X145717391Y-62331160D01*
X145115214Y-62933337D01*
X145089592Y-62871478D01*
X145019004Y-62765836D01*
X144929164Y-62675996D01*
X144823522Y-62605408D01*
X144761661Y-62579784D01*
X145363837Y-61977608D01*
X145360778Y-61938729D01*
X145375142Y-61870352D01*
X145424193Y-61820595D01*
X145484396Y-61805000D01*
X145505250Y-61805000D01*
X145505251Y-61804999D01*
X145520068Y-61802052D01*
X145563729Y-61793368D01*
X145563729Y-61793367D01*
X145563731Y-61793367D01*
X145630052Y-61749052D01*
X145674367Y-61682731D01*
X145674367Y-61682729D01*
X145674368Y-61682729D01*
X145685999Y-61624252D01*
X145686000Y-61624250D01*
X145686000Y-59649749D01*
X145685999Y-59649747D01*
X145674368Y-59591270D01*
X145674367Y-59591269D01*
X145630052Y-59524947D01*
X145563730Y-59480632D01*
X145563729Y-59480631D01*
X145505252Y-59469000D01*
X145505248Y-59469000D01*
X143530752Y-59469000D01*
X143530747Y-59469000D01*
X143472270Y-59480631D01*
X143472269Y-59480632D01*
X143405947Y-59524947D01*
X143361632Y-59591269D01*
X143361631Y-59591270D01*
X143350000Y-59649747D01*
X143350000Y-59929535D01*
X143330315Y-59996574D01*
X143277511Y-60042329D01*
X143208353Y-60052273D01*
X143144797Y-60023248D01*
X143138319Y-60017216D01*
X142127616Y-59006513D01*
X142127614Y-59006511D01*
X142076250Y-58976856D01*
X142024888Y-58947201D01*
X142012780Y-58943957D01*
X142000673Y-58940713D01*
X142000670Y-58940712D01*
X141962478Y-58930478D01*
X141910309Y-58916500D01*
X141910308Y-58916500D01*
X139785018Y-58916500D01*
X139717979Y-58896815D01*
X139681914Y-58861388D01*
X139678788Y-58856709D01*
X139567292Y-58745213D01*
X139567288Y-58745210D01*
X139436185Y-58657609D01*
X139436172Y-58657602D01*
X139290501Y-58597264D01*
X139290489Y-58597261D01*
X139135845Y-58566500D01*
X139135842Y-58566500D01*
X138978158Y-58566500D01*
X138978155Y-58566500D01*
X138823510Y-58597261D01*
X138823498Y-58597264D01*
X138677827Y-58657602D01*
X138677814Y-58657609D01*
X138546711Y-58745210D01*
X138546707Y-58745213D01*
X138435211Y-58856709D01*
X138432086Y-58861388D01*
X138378475Y-58906194D01*
X138328982Y-58916500D01*
X134945556Y-58916500D01*
X134878517Y-58896815D01*
X134842454Y-58861390D01*
X134754142Y-58729222D01*
X134754136Y-58729214D01*
X134614785Y-58589863D01*
X134614781Y-58589860D01*
X134450920Y-58480371D01*
X134450907Y-58480364D01*
X134268839Y-58404950D01*
X134268829Y-58404947D01*
X134075543Y-58366500D01*
X134075541Y-58366500D01*
X133878459Y-58366500D01*
X133878457Y-58366500D01*
X133685170Y-58404947D01*
X133685160Y-58404950D01*
X133503093Y-58480364D01*
X133503082Y-58480370D01*
X133474664Y-58499359D01*
X133407987Y-58520236D01*
X133389587Y-58519195D01*
X133384309Y-58518500D01*
X133384308Y-58518500D01*
X129464436Y-58518500D01*
X129397397Y-58498815D01*
X129351642Y-58446011D01*
X129349875Y-58441953D01*
X129334548Y-58404950D01*
X129299941Y-58321402D01*
X129184977Y-58149345D01*
X129184975Y-58149342D01*
X129038657Y-58003024D01*
X128952626Y-57945541D01*
X128866598Y-57888059D01*
X128675420Y-57808870D01*
X128675412Y-57808868D01*
X128472469Y-57768500D01*
X128472465Y-57768500D01*
X128265535Y-57768500D01*
X128265530Y-57768500D01*
X128062587Y-57808868D01*
X128062579Y-57808870D01*
X127871403Y-57888058D01*
X127699342Y-58003024D01*
X127553024Y-58149342D01*
X127446102Y-58309365D01*
X127392489Y-58354171D01*
X127323165Y-58362878D01*
X127260137Y-58332724D01*
X127223417Y-58273281D01*
X127218999Y-58240475D01*
X127218999Y-58169028D01*
X127218998Y-58169012D01*
X127208505Y-58066302D01*
X127153358Y-57899880D01*
X127153356Y-57899875D01*
X127061315Y-57750654D01*
X126937345Y-57626684D01*
X126788124Y-57534643D01*
X126788119Y-57534641D01*
X126621697Y-57479494D01*
X126621690Y-57479493D01*
X126518986Y-57469000D01*
X126119000Y-57469000D01*
X126119000Y-58535988D01*
X126061993Y-58503075D01*
X125934826Y-58469000D01*
X125803174Y-58469000D01*
X125676007Y-58503075D01*
X125619000Y-58535988D01*
X125619000Y-57469000D01*
X125219028Y-57469000D01*
X125219012Y-57469001D01*
X125116302Y-57479494D01*
X124949880Y-57534641D01*
X124949875Y-57534643D01*
X124800654Y-57626684D01*
X124676684Y-57750654D01*
X124584643Y-57899875D01*
X124584641Y-57899880D01*
X124529494Y-58066302D01*
X124529493Y-58066309D01*
X124519000Y-58169013D01*
X124519000Y-58719000D01*
X125435988Y-58719000D01*
X125403075Y-58776007D01*
X125369000Y-58903174D01*
X125369000Y-59034826D01*
X125403075Y-59161993D01*
X125435988Y-59219000D01*
X124519001Y-59219000D01*
X124519001Y-59768986D01*
X124529494Y-59871697D01*
X124584641Y-60038119D01*
X124584643Y-60038124D01*
X124676684Y-60187345D01*
X124800654Y-60311315D01*
X124949875Y-60403356D01*
X124949880Y-60403358D01*
X125116302Y-60458505D01*
X125116309Y-60458506D01*
X125219019Y-60468999D01*
X125618999Y-60468999D01*
X125619000Y-60468998D01*
X125619000Y-59402012D01*
X125676007Y-59434925D01*
X125803174Y-59469000D01*
X125934826Y-59469000D01*
X126061993Y-59434925D01*
X126119000Y-59402012D01*
X126119000Y-60468999D01*
X126518972Y-60468999D01*
X126518986Y-60468998D01*
X126621697Y-60458505D01*
X126788119Y-60403358D01*
X126788124Y-60403356D01*
X126937345Y-60311315D01*
X127061315Y-60187345D01*
X127153356Y-60038124D01*
X127153358Y-60038119D01*
X127208505Y-59871697D01*
X127208506Y-59871690D01*
X127218999Y-59768986D01*
X127218999Y-59697528D01*
X127238683Y-59630488D01*
X127291486Y-59584732D01*
X127360644Y-59574788D01*
X127424200Y-59603812D01*
X127446101Y-59628635D01*
X127553022Y-59788655D01*
X127699341Y-59934974D01*
X127699346Y-59934978D01*
X127756389Y-59973092D01*
X127801195Y-60026703D01*
X127811500Y-60076195D01*
X127811500Y-64463035D01*
X127791815Y-64530074D01*
X127775181Y-64550716D01*
X124555716Y-67770181D01*
X124494393Y-67803666D01*
X124468035Y-67806500D01*
X122160893Y-67806500D01*
X122093854Y-67786815D01*
X122048099Y-67734011D01*
X122036893Y-67682474D01*
X122038648Y-59167612D01*
X122038648Y-59167611D01*
X122038753Y-58657602D01*
X122039026Y-57331972D01*
X122058724Y-57264939D01*
X122111538Y-57219195D01*
X122163026Y-57208000D01*
X148585000Y-57208000D01*
X148652039Y-57227685D01*
G37*
%TD.AperFunction*%
%TD*%
D33*
X64408154Y-95714030D02*
X64331964Y-95675935D01*
X64331964Y-95675935D02*
X64217678Y-95675935D01*
X64217678Y-95675935D02*
X64103392Y-95714030D01*
X64103392Y-95714030D02*
X64027202Y-95790220D01*
X64027202Y-95790220D02*
X63989107Y-95866411D01*
X63989107Y-95866411D02*
X63951011Y-96018792D01*
X63951011Y-96018792D02*
X63951011Y-96133078D01*
X63951011Y-96133078D02*
X63989107Y-96285459D01*
X63989107Y-96285459D02*
X64027202Y-96361649D01*
X64027202Y-96361649D02*
X64103392Y-96437840D01*
X64103392Y-96437840D02*
X64217678Y-96475935D01*
X64217678Y-96475935D02*
X64293869Y-96475935D01*
X64293869Y-96475935D02*
X64408154Y-96437840D01*
X64408154Y-96437840D02*
X64446250Y-96399744D01*
X64446250Y-96399744D02*
X64446250Y-96133078D01*
X64446250Y-96133078D02*
X64293869Y-96133078D01*
X64789107Y-96475935D02*
X64789107Y-95675935D01*
X64789107Y-95675935D02*
X65246250Y-96475935D01*
X65246250Y-96475935D02*
X65246250Y-95675935D01*
X65627202Y-96475935D02*
X65627202Y-95675935D01*
X65627202Y-95675935D02*
X65817678Y-95675935D01*
X65817678Y-95675935D02*
X65931964Y-95714030D01*
X65931964Y-95714030D02*
X66008154Y-95790220D01*
X66008154Y-95790220D02*
X66046249Y-95866411D01*
X66046249Y-95866411D02*
X66084345Y-96018792D01*
X66084345Y-96018792D02*
X66084345Y-96133078D01*
X66084345Y-96133078D02*
X66046249Y-96285459D01*
X66046249Y-96285459D02*
X66008154Y-96361649D01*
X66008154Y-96361649D02*
X65931964Y-96437840D01*
X65931964Y-96437840D02*
X65817678Y-96475935D01*
X65817678Y-96475935D02*
X65627202Y-96475935D01*
X64446250Y-99142935D02*
X64179583Y-98761982D01*
X63989107Y-99142935D02*
X63989107Y-98342935D01*
X63989107Y-98342935D02*
X64293869Y-98342935D01*
X64293869Y-98342935D02*
X64370059Y-98381030D01*
X64370059Y-98381030D02*
X64408154Y-98419125D01*
X64408154Y-98419125D02*
X64446250Y-98495316D01*
X64446250Y-98495316D02*
X64446250Y-98609601D01*
X64446250Y-98609601D02*
X64408154Y-98685792D01*
X64408154Y-98685792D02*
X64370059Y-98723887D01*
X64370059Y-98723887D02*
X64293869Y-98761982D01*
X64293869Y-98761982D02*
X63989107Y-98761982D01*
X64712916Y-99142935D02*
X65131964Y-98609601D01*
X64712916Y-98609601D02*
X65131964Y-99142935D01*
X63730821Y-100374935D02*
X64187964Y-100374935D01*
X63959392Y-101174935D02*
X63959392Y-100374935D01*
X64378440Y-101174935D02*
X64797488Y-100641601D01*
X64378440Y-100641601D02*
X64797488Y-101174935D01*
D34*
X121678435Y-154373219D02*
X121916530Y-155373219D01*
X121916530Y-155373219D02*
X122107006Y-154658933D01*
X122107006Y-154658933D02*
X122297482Y-155373219D01*
X122297482Y-155373219D02*
X122535578Y-154373219D01*
X122916530Y-155373219D02*
X122916530Y-154373219D01*
X122916530Y-154373219D02*
X123154625Y-154373219D01*
X123154625Y-154373219D02*
X123297482Y-154420838D01*
X123297482Y-154420838D02*
X123392720Y-154516076D01*
X123392720Y-154516076D02*
X123440339Y-154611314D01*
X123440339Y-154611314D02*
X123487958Y-154801790D01*
X123487958Y-154801790D02*
X123487958Y-154944647D01*
X123487958Y-154944647D02*
X123440339Y-155135123D01*
X123440339Y-155135123D02*
X123392720Y-155230361D01*
X123392720Y-155230361D02*
X123297482Y-155325600D01*
X123297482Y-155325600D02*
X123154625Y-155373219D01*
X123154625Y-155373219D02*
X122916530Y-155373219D01*
X123916530Y-155373219D02*
X123916530Y-154373219D01*
X123916530Y-154373219D02*
X124249863Y-155087504D01*
X124249863Y-155087504D02*
X124583196Y-154373219D01*
X124583196Y-154373219D02*
X124583196Y-155373219D01*
X125059387Y-154992266D02*
X125821292Y-154992266D01*
X126154625Y-154373219D02*
X126487958Y-155373219D01*
X126487958Y-155373219D02*
X126821291Y-154373219D01*
X127345101Y-154373219D02*
X127535577Y-154373219D01*
X127535577Y-154373219D02*
X127630815Y-154420838D01*
X127630815Y-154420838D02*
X127726053Y-154516076D01*
X127726053Y-154516076D02*
X127773672Y-154706552D01*
X127773672Y-154706552D02*
X127773672Y-155039885D01*
X127773672Y-155039885D02*
X127726053Y-155230361D01*
X127726053Y-155230361D02*
X127630815Y-155325600D01*
X127630815Y-155325600D02*
X127535577Y-155373219D01*
X127535577Y-155373219D02*
X127345101Y-155373219D01*
X127345101Y-155373219D02*
X127249863Y-155325600D01*
X127249863Y-155325600D02*
X127154625Y-155230361D01*
X127154625Y-155230361D02*
X127107006Y-155039885D01*
X127107006Y-155039885D02*
X127107006Y-154706552D01*
X127107006Y-154706552D02*
X127154625Y-154516076D01*
X127154625Y-154516076D02*
X127249863Y-154420838D01*
X127249863Y-154420838D02*
X127345101Y-154373219D01*
X128107006Y-154373219D02*
X128773672Y-155373219D01*
X128773672Y-154373219D02*
X128107006Y-155373219D01*
X129154625Y-155373219D02*
X129154625Y-154373219D01*
X129154625Y-154373219D02*
X129392720Y-154373219D01*
X129392720Y-154373219D02*
X129535577Y-154420838D01*
X129535577Y-154420838D02*
X129630815Y-154516076D01*
X129630815Y-154516076D02*
X129678434Y-154611314D01*
X129678434Y-154611314D02*
X129726053Y-154801790D01*
X129726053Y-154801790D02*
X129726053Y-154944647D01*
X129726053Y-154944647D02*
X129678434Y-155135123D01*
X129678434Y-155135123D02*
X129630815Y-155230361D01*
X129630815Y-155230361D02*
X129535577Y-155325600D01*
X129535577Y-155325600D02*
X129392720Y-155373219D01*
X129392720Y-155373219D02*
X129154625Y-155373219D01*
X130154625Y-154992266D02*
X130916530Y-154992266D01*
X131583196Y-154373219D02*
X131678434Y-154373219D01*
X131678434Y-154373219D02*
X131773672Y-154420838D01*
X131773672Y-154420838D02*
X131821291Y-154468457D01*
X131821291Y-154468457D02*
X131868910Y-154563695D01*
X131868910Y-154563695D02*
X131916529Y-154754171D01*
X131916529Y-154754171D02*
X131916529Y-154992266D01*
X131916529Y-154992266D02*
X131868910Y-155182742D01*
X131868910Y-155182742D02*
X131821291Y-155277980D01*
X131821291Y-155277980D02*
X131773672Y-155325600D01*
X131773672Y-155325600D02*
X131678434Y-155373219D01*
X131678434Y-155373219D02*
X131583196Y-155373219D01*
X131583196Y-155373219D02*
X131487958Y-155325600D01*
X131487958Y-155325600D02*
X131440339Y-155277980D01*
X131440339Y-155277980D02*
X131392720Y-155182742D01*
X131392720Y-155182742D02*
X131345101Y-154992266D01*
X131345101Y-154992266D02*
X131345101Y-154754171D01*
X131345101Y-154754171D02*
X131392720Y-154563695D01*
X131392720Y-154563695D02*
X131440339Y-154468457D01*
X131440339Y-154468457D02*
X131487958Y-154420838D01*
X131487958Y-154420838D02*
X131583196Y-154373219D01*
X132392720Y-155373219D02*
X132583196Y-155373219D01*
X132583196Y-155373219D02*
X132678434Y-155325600D01*
X132678434Y-155325600D02*
X132726053Y-155277980D01*
X132726053Y-155277980D02*
X132821291Y-155135123D01*
X132821291Y-155135123D02*
X132868910Y-154944647D01*
X132868910Y-154944647D02*
X132868910Y-154563695D01*
X132868910Y-154563695D02*
X132821291Y-154468457D01*
X132821291Y-154468457D02*
X132773672Y-154420838D01*
X132773672Y-154420838D02*
X132678434Y-154373219D01*
X132678434Y-154373219D02*
X132487958Y-154373219D01*
X132487958Y-154373219D02*
X132392720Y-154420838D01*
X132392720Y-154420838D02*
X132345101Y-154468457D01*
X132345101Y-154468457D02*
X132297482Y-154563695D01*
X132297482Y-154563695D02*
X132297482Y-154801790D01*
X132297482Y-154801790D02*
X132345101Y-154897028D01*
X132345101Y-154897028D02*
X132392720Y-154944647D01*
X132392720Y-154944647D02*
X132487958Y-154992266D01*
X132487958Y-154992266D02*
X132678434Y-154992266D01*
X132678434Y-154992266D02*
X132773672Y-154944647D01*
X132773672Y-154944647D02*
X132821291Y-154897028D01*
X132821291Y-154897028D02*
X132868910Y-154801790D01*
X133249863Y-154468457D02*
X133297482Y-154420838D01*
X133297482Y-154420838D02*
X133392720Y-154373219D01*
X133392720Y-154373219D02*
X133630815Y-154373219D01*
X133630815Y-154373219D02*
X133726053Y-154420838D01*
X133726053Y-154420838D02*
X133773672Y-154468457D01*
X133773672Y-154468457D02*
X133821291Y-154563695D01*
X133821291Y-154563695D02*
X133821291Y-154658933D01*
X133821291Y-154658933D02*
X133773672Y-154801790D01*
X133773672Y-154801790D02*
X133202244Y-155373219D01*
X133202244Y-155373219D02*
X133821291Y-155373219D01*
X134440339Y-154373219D02*
X134535577Y-154373219D01*
X134535577Y-154373219D02*
X134630815Y-154420838D01*
X134630815Y-154420838D02*
X134678434Y-154468457D01*
X134678434Y-154468457D02*
X134726053Y-154563695D01*
X134726053Y-154563695D02*
X134773672Y-154754171D01*
X134773672Y-154754171D02*
X134773672Y-154992266D01*
X134773672Y-154992266D02*
X134726053Y-155182742D01*
X134726053Y-155182742D02*
X134678434Y-155277980D01*
X134678434Y-155277980D02*
X134630815Y-155325600D01*
X134630815Y-155325600D02*
X134535577Y-155373219D01*
X134535577Y-155373219D02*
X134440339Y-155373219D01*
X134440339Y-155373219D02*
X134345101Y-155325600D01*
X134345101Y-155325600D02*
X134297482Y-155277980D01*
X134297482Y-155277980D02*
X134249863Y-155182742D01*
X134249863Y-155182742D02*
X134202244Y-154992266D01*
X134202244Y-154992266D02*
X134202244Y-154754171D01*
X134202244Y-154754171D02*
X134249863Y-154563695D01*
X134249863Y-154563695D02*
X134297482Y-154468457D01*
X134297482Y-154468457D02*
X134345101Y-154420838D01*
X134345101Y-154420838D02*
X134440339Y-154373219D01*
X135154625Y-154468457D02*
X135202244Y-154420838D01*
X135202244Y-154420838D02*
X135297482Y-154373219D01*
X135297482Y-154373219D02*
X135535577Y-154373219D01*
X135535577Y-154373219D02*
X135630815Y-154420838D01*
X135630815Y-154420838D02*
X135678434Y-154468457D01*
X135678434Y-154468457D02*
X135726053Y-154563695D01*
X135726053Y-154563695D02*
X135726053Y-154658933D01*
X135726053Y-154658933D02*
X135678434Y-154801790D01*
X135678434Y-154801790D02*
X135107006Y-155373219D01*
X135107006Y-155373219D02*
X135726053Y-155373219D01*
X136630815Y-154373219D02*
X136154625Y-154373219D01*
X136154625Y-154373219D02*
X136107006Y-154849409D01*
X136107006Y-154849409D02*
X136154625Y-154801790D01*
X136154625Y-154801790D02*
X136249863Y-154754171D01*
X136249863Y-154754171D02*
X136487958Y-154754171D01*
X136487958Y-154754171D02*
X136583196Y-154801790D01*
X136583196Y-154801790D02*
X136630815Y-154849409D01*
X136630815Y-154849409D02*
X136678434Y-154944647D01*
X136678434Y-154944647D02*
X136678434Y-155182742D01*
X136678434Y-155182742D02*
X136630815Y-155277980D01*
X136630815Y-155277980D02*
X136583196Y-155325600D01*
X136583196Y-155325600D02*
X136487958Y-155373219D01*
X136487958Y-155373219D02*
X136249863Y-155373219D01*
X136249863Y-155373219D02*
X136154625Y-155325600D01*
X136154625Y-155325600D02*
X136107006Y-155277980D01*
X137107006Y-154992266D02*
X137868911Y-154992266D01*
X138202244Y-154373219D02*
X138535577Y-155373219D01*
X138535577Y-155373219D02*
X138868910Y-154373219D01*
X139726053Y-155373219D02*
X139154625Y-155373219D01*
X139440339Y-155373219D02*
X139440339Y-154373219D01*
X139440339Y-154373219D02*
X139345101Y-154516076D01*
X139345101Y-154516076D02*
X139249863Y-154611314D01*
X139249863Y-154611314D02*
X139154625Y-154658933D01*
D35*
X121226527Y-146086919D02*
X121559860Y-147086919D01*
X121559860Y-147086919D02*
X121893193Y-146086919D01*
X122369384Y-147086919D02*
X122274146Y-147039300D01*
X122274146Y-147039300D02*
X122226527Y-146991680D01*
X122226527Y-146991680D02*
X122178908Y-146896442D01*
X122178908Y-146896442D02*
X122178908Y-146610728D01*
X122178908Y-146610728D02*
X122226527Y-146515490D01*
X122226527Y-146515490D02*
X122274146Y-146467871D01*
X122274146Y-146467871D02*
X122369384Y-146420252D01*
X122369384Y-146420252D02*
X122512241Y-146420252D01*
X122512241Y-146420252D02*
X122607479Y-146467871D01*
X122607479Y-146467871D02*
X122655098Y-146515490D01*
X122655098Y-146515490D02*
X122702717Y-146610728D01*
X122702717Y-146610728D02*
X122702717Y-146896442D01*
X122702717Y-146896442D02*
X122655098Y-146991680D01*
X122655098Y-146991680D02*
X122607479Y-147039300D01*
X122607479Y-147039300D02*
X122512241Y-147086919D01*
X122512241Y-147086919D02*
X122369384Y-147086919D01*
X123559860Y-147039300D02*
X123464622Y-147086919D01*
X123464622Y-147086919D02*
X123274146Y-147086919D01*
X123274146Y-147086919D02*
X123178908Y-147039300D01*
X123178908Y-147039300D02*
X123131289Y-146991680D01*
X123131289Y-146991680D02*
X123083670Y-146896442D01*
X123083670Y-146896442D02*
X123083670Y-146610728D01*
X123083670Y-146610728D02*
X123131289Y-146515490D01*
X123131289Y-146515490D02*
X123178908Y-146467871D01*
X123178908Y-146467871D02*
X123274146Y-146420252D01*
X123274146Y-146420252D02*
X123464622Y-146420252D01*
X123464622Y-146420252D02*
X123559860Y-146467871D01*
X124417003Y-147086919D02*
X124417003Y-146563109D01*
X124417003Y-146563109D02*
X124369384Y-146467871D01*
X124369384Y-146467871D02*
X124274146Y-146420252D01*
X124274146Y-146420252D02*
X124083670Y-146420252D01*
X124083670Y-146420252D02*
X123988432Y-146467871D01*
X124417003Y-147039300D02*
X124321765Y-147086919D01*
X124321765Y-147086919D02*
X124083670Y-147086919D01*
X124083670Y-147086919D02*
X123988432Y-147039300D01*
X123988432Y-147039300D02*
X123940813Y-146944061D01*
X123940813Y-146944061D02*
X123940813Y-146848823D01*
X123940813Y-146848823D02*
X123988432Y-146753585D01*
X123988432Y-146753585D02*
X124083670Y-146705966D01*
X124083670Y-146705966D02*
X124321765Y-146705966D01*
X124321765Y-146705966D02*
X124417003Y-146658347D01*
X125036051Y-147086919D02*
X124940813Y-147039300D01*
X124940813Y-147039300D02*
X124893194Y-146944061D01*
X124893194Y-146944061D02*
X124893194Y-146086919D01*
X126178909Y-147086919D02*
X126178909Y-146086919D01*
X126178909Y-146086919D02*
X126417004Y-146086919D01*
X126417004Y-146086919D02*
X126559861Y-146134538D01*
X126559861Y-146134538D02*
X126655099Y-146229776D01*
X126655099Y-146229776D02*
X126702718Y-146325014D01*
X126702718Y-146325014D02*
X126750337Y-146515490D01*
X126750337Y-146515490D02*
X126750337Y-146658347D01*
X126750337Y-146658347D02*
X126702718Y-146848823D01*
X126702718Y-146848823D02*
X126655099Y-146944061D01*
X126655099Y-146944061D02*
X126559861Y-147039300D01*
X126559861Y-147039300D02*
X126417004Y-147086919D01*
X126417004Y-147086919D02*
X126178909Y-147086919D01*
X127559861Y-147039300D02*
X127464623Y-147086919D01*
X127464623Y-147086919D02*
X127274147Y-147086919D01*
X127274147Y-147086919D02*
X127178909Y-147039300D01*
X127178909Y-147039300D02*
X127131290Y-146944061D01*
X127131290Y-146944061D02*
X127131290Y-146563109D01*
X127131290Y-146563109D02*
X127178909Y-146467871D01*
X127178909Y-146467871D02*
X127274147Y-146420252D01*
X127274147Y-146420252D02*
X127464623Y-146420252D01*
X127464623Y-146420252D02*
X127559861Y-146467871D01*
X127559861Y-146467871D02*
X127607480Y-146563109D01*
X127607480Y-146563109D02*
X127607480Y-146658347D01*
X127607480Y-146658347D02*
X127131290Y-146753585D01*
X128178909Y-147086919D02*
X128083671Y-147039300D01*
X128083671Y-147039300D02*
X128036052Y-146944061D01*
X128036052Y-146944061D02*
X128036052Y-146086919D01*
X128988433Y-147086919D02*
X128988433Y-146563109D01*
X128988433Y-146563109D02*
X128940814Y-146467871D01*
X128940814Y-146467871D02*
X128845576Y-146420252D01*
X128845576Y-146420252D02*
X128655100Y-146420252D01*
X128655100Y-146420252D02*
X128559862Y-146467871D01*
X128988433Y-147039300D02*
X128893195Y-147086919D01*
X128893195Y-147086919D02*
X128655100Y-147086919D01*
X128655100Y-147086919D02*
X128559862Y-147039300D01*
X128559862Y-147039300D02*
X128512243Y-146944061D01*
X128512243Y-146944061D02*
X128512243Y-146848823D01*
X128512243Y-146848823D02*
X128559862Y-146753585D01*
X128559862Y-146753585D02*
X128655100Y-146705966D01*
X128655100Y-146705966D02*
X128893195Y-146705966D01*
X128893195Y-146705966D02*
X128988433Y-146658347D01*
X129369386Y-146420252D02*
X129607481Y-147086919D01*
X129845576Y-146420252D02*
X129607481Y-147086919D01*
X129607481Y-147086919D02*
X129512243Y-147325014D01*
X129512243Y-147325014D02*
X129464624Y-147372633D01*
X129464624Y-147372633D02*
X129369386Y-147420252D01*
X130988434Y-147086919D02*
X130988434Y-146086919D01*
X130988434Y-146086919D02*
X131369386Y-146086919D01*
X131369386Y-146086919D02*
X131464624Y-146134538D01*
X131464624Y-146134538D02*
X131512243Y-146182157D01*
X131512243Y-146182157D02*
X131559862Y-146277395D01*
X131559862Y-146277395D02*
X131559862Y-146420252D01*
X131559862Y-146420252D02*
X131512243Y-146515490D01*
X131512243Y-146515490D02*
X131464624Y-146563109D01*
X131464624Y-146563109D02*
X131369386Y-146610728D01*
X131369386Y-146610728D02*
X130988434Y-146610728D01*
X132369386Y-147039300D02*
X132274148Y-147086919D01*
X132274148Y-147086919D02*
X132083672Y-147086919D01*
X132083672Y-147086919D02*
X131988434Y-147039300D01*
X131988434Y-147039300D02*
X131940815Y-146944061D01*
X131940815Y-146944061D02*
X131940815Y-146563109D01*
X131940815Y-146563109D02*
X131988434Y-146467871D01*
X131988434Y-146467871D02*
X132083672Y-146420252D01*
X132083672Y-146420252D02*
X132274148Y-146420252D01*
X132274148Y-146420252D02*
X132369386Y-146467871D01*
X132369386Y-146467871D02*
X132417005Y-146563109D01*
X132417005Y-146563109D02*
X132417005Y-146658347D01*
X132417005Y-146658347D02*
X131940815Y-146753585D01*
X133274148Y-147086919D02*
X133274148Y-146086919D01*
X133274148Y-147039300D02*
X133178910Y-147086919D01*
X133178910Y-147086919D02*
X132988434Y-147086919D01*
X132988434Y-147086919D02*
X132893196Y-147039300D01*
X132893196Y-147039300D02*
X132845577Y-146991680D01*
X132845577Y-146991680D02*
X132797958Y-146896442D01*
X132797958Y-146896442D02*
X132797958Y-146610728D01*
X132797958Y-146610728D02*
X132845577Y-146515490D01*
X132845577Y-146515490D02*
X132893196Y-146467871D01*
X132893196Y-146467871D02*
X132988434Y-146420252D01*
X132988434Y-146420252D02*
X133178910Y-146420252D01*
X133178910Y-146420252D02*
X133274148Y-146467871D01*
X134178910Y-147086919D02*
X134178910Y-146563109D01*
X134178910Y-146563109D02*
X134131291Y-146467871D01*
X134131291Y-146467871D02*
X134036053Y-146420252D01*
X134036053Y-146420252D02*
X133845577Y-146420252D01*
X133845577Y-146420252D02*
X133750339Y-146467871D01*
X134178910Y-147039300D02*
X134083672Y-147086919D01*
X134083672Y-147086919D02*
X133845577Y-147086919D01*
X133845577Y-147086919D02*
X133750339Y-147039300D01*
X133750339Y-147039300D02*
X133702720Y-146944061D01*
X133702720Y-146944061D02*
X133702720Y-146848823D01*
X133702720Y-146848823D02*
X133750339Y-146753585D01*
X133750339Y-146753585D02*
X133845577Y-146705966D01*
X133845577Y-146705966D02*
X134083672Y-146705966D01*
X134083672Y-146705966D02*
X134178910Y-146658347D01*
X134797958Y-147086919D02*
X134702720Y-147039300D01*
X134702720Y-147039300D02*
X134655101Y-146944061D01*
X134655101Y-146944061D02*
X134655101Y-146086919D01*
X121274146Y-147696863D02*
X121512241Y-148696863D01*
X121512241Y-148696863D02*
X121702717Y-147982577D01*
X121702717Y-147982577D02*
X121893193Y-148696863D01*
X121893193Y-148696863D02*
X122131289Y-147696863D01*
X122512241Y-148696863D02*
X122512241Y-148030196D01*
X122512241Y-147696863D02*
X122464622Y-147744482D01*
X122464622Y-147744482D02*
X122512241Y-147792101D01*
X122512241Y-147792101D02*
X122559860Y-147744482D01*
X122559860Y-147744482D02*
X122512241Y-147696863D01*
X122512241Y-147696863D02*
X122512241Y-147792101D01*
X123131288Y-148696863D02*
X123036050Y-148649244D01*
X123036050Y-148649244D02*
X122988431Y-148554005D01*
X122988431Y-148554005D02*
X122988431Y-147696863D01*
X123655098Y-148696863D02*
X123559860Y-148649244D01*
X123559860Y-148649244D02*
X123512241Y-148554005D01*
X123512241Y-148554005D02*
X123512241Y-147696863D01*
X124036051Y-148696863D02*
X124036051Y-148030196D01*
X124036051Y-147696863D02*
X123988432Y-147744482D01*
X123988432Y-147744482D02*
X124036051Y-147792101D01*
X124036051Y-147792101D02*
X124083670Y-147744482D01*
X124083670Y-147744482D02*
X124036051Y-147696863D01*
X124036051Y-147696863D02*
X124036051Y-147792101D01*
X124940812Y-148696863D02*
X124940812Y-148173053D01*
X124940812Y-148173053D02*
X124893193Y-148077815D01*
X124893193Y-148077815D02*
X124797955Y-148030196D01*
X124797955Y-148030196D02*
X124607479Y-148030196D01*
X124607479Y-148030196D02*
X124512241Y-148077815D01*
X124940812Y-148649244D02*
X124845574Y-148696863D01*
X124845574Y-148696863D02*
X124607479Y-148696863D01*
X124607479Y-148696863D02*
X124512241Y-148649244D01*
X124512241Y-148649244D02*
X124464622Y-148554005D01*
X124464622Y-148554005D02*
X124464622Y-148458767D01*
X124464622Y-148458767D02*
X124512241Y-148363529D01*
X124512241Y-148363529D02*
X124607479Y-148315910D01*
X124607479Y-148315910D02*
X124845574Y-148315910D01*
X124845574Y-148315910D02*
X124940812Y-148268291D01*
X125417003Y-148696863D02*
X125417003Y-148030196D01*
X125417003Y-148125434D02*
X125464622Y-148077815D01*
X125464622Y-148077815D02*
X125559860Y-148030196D01*
X125559860Y-148030196D02*
X125702717Y-148030196D01*
X125702717Y-148030196D02*
X125797955Y-148077815D01*
X125797955Y-148077815D02*
X125845574Y-148173053D01*
X125845574Y-148173053D02*
X125845574Y-148696863D01*
X125845574Y-148173053D02*
X125893193Y-148077815D01*
X125893193Y-148077815D02*
X125988431Y-148030196D01*
X125988431Y-148030196D02*
X126131288Y-148030196D01*
X126131288Y-148030196D02*
X126226527Y-148077815D01*
X126226527Y-148077815D02*
X126274146Y-148173053D01*
X126274146Y-148173053D02*
X126274146Y-148696863D01*
X127512241Y-148696863D02*
X127512241Y-147696863D01*
X127512241Y-147696863D02*
X127750336Y-147696863D01*
X127750336Y-147696863D02*
X127893193Y-147744482D01*
X127893193Y-147744482D02*
X127988431Y-147839720D01*
X127988431Y-147839720D02*
X128036050Y-147934958D01*
X128036050Y-147934958D02*
X128083669Y-148125434D01*
X128083669Y-148125434D02*
X128083669Y-148268291D01*
X128083669Y-148268291D02*
X128036050Y-148458767D01*
X128036050Y-148458767D02*
X127988431Y-148554005D01*
X127988431Y-148554005D02*
X127893193Y-148649244D01*
X127893193Y-148649244D02*
X127750336Y-148696863D01*
X127750336Y-148696863D02*
X127512241Y-148696863D01*
X128655098Y-148696863D02*
X128559860Y-148649244D01*
X128559860Y-148649244D02*
X128512241Y-148601624D01*
X128512241Y-148601624D02*
X128464622Y-148506386D01*
X128464622Y-148506386D02*
X128464622Y-148220672D01*
X128464622Y-148220672D02*
X128512241Y-148125434D01*
X128512241Y-148125434D02*
X128559860Y-148077815D01*
X128559860Y-148077815D02*
X128655098Y-148030196D01*
X128655098Y-148030196D02*
X128797955Y-148030196D01*
X128797955Y-148030196D02*
X128893193Y-148077815D01*
X128893193Y-148077815D02*
X128940812Y-148125434D01*
X128940812Y-148125434D02*
X128988431Y-148220672D01*
X128988431Y-148220672D02*
X128988431Y-148506386D01*
X128988431Y-148506386D02*
X128940812Y-148601624D01*
X128940812Y-148601624D02*
X128893193Y-148649244D01*
X128893193Y-148649244D02*
X128797955Y-148696863D01*
X128797955Y-148696863D02*
X128655098Y-148696863D01*
X129845574Y-148030196D02*
X129845574Y-148696863D01*
X129417003Y-148030196D02*
X129417003Y-148554005D01*
X129417003Y-148554005D02*
X129464622Y-148649244D01*
X129464622Y-148649244D02*
X129559860Y-148696863D01*
X129559860Y-148696863D02*
X129702717Y-148696863D01*
X129702717Y-148696863D02*
X129797955Y-148649244D01*
X129797955Y-148649244D02*
X129845574Y-148601624D01*
X130750336Y-148030196D02*
X130750336Y-148839720D01*
X130750336Y-148839720D02*
X130702717Y-148934958D01*
X130702717Y-148934958D02*
X130655098Y-148982577D01*
X130655098Y-148982577D02*
X130559860Y-149030196D01*
X130559860Y-149030196D02*
X130417003Y-149030196D01*
X130417003Y-149030196D02*
X130321765Y-148982577D01*
X130750336Y-148649244D02*
X130655098Y-148696863D01*
X130655098Y-148696863D02*
X130464622Y-148696863D01*
X130464622Y-148696863D02*
X130369384Y-148649244D01*
X130369384Y-148649244D02*
X130321765Y-148601624D01*
X130321765Y-148601624D02*
X130274146Y-148506386D01*
X130274146Y-148506386D02*
X130274146Y-148220672D01*
X130274146Y-148220672D02*
X130321765Y-148125434D01*
X130321765Y-148125434D02*
X130369384Y-148077815D01*
X130369384Y-148077815D02*
X130464622Y-148030196D01*
X130464622Y-148030196D02*
X130655098Y-148030196D01*
X130655098Y-148030196D02*
X130750336Y-148077815D01*
X131369384Y-148696863D02*
X131274146Y-148649244D01*
X131274146Y-148649244D02*
X131226527Y-148554005D01*
X131226527Y-148554005D02*
X131226527Y-147696863D01*
X132178908Y-148696863D02*
X132178908Y-148173053D01*
X132178908Y-148173053D02*
X132131289Y-148077815D01*
X132131289Y-148077815D02*
X132036051Y-148030196D01*
X132036051Y-148030196D02*
X131845575Y-148030196D01*
X131845575Y-148030196D02*
X131750337Y-148077815D01*
X132178908Y-148649244D02*
X132083670Y-148696863D01*
X132083670Y-148696863D02*
X131845575Y-148696863D01*
X131845575Y-148696863D02*
X131750337Y-148649244D01*
X131750337Y-148649244D02*
X131702718Y-148554005D01*
X131702718Y-148554005D02*
X131702718Y-148458767D01*
X131702718Y-148458767D02*
X131750337Y-148363529D01*
X131750337Y-148363529D02*
X131845575Y-148315910D01*
X131845575Y-148315910D02*
X132083670Y-148315910D01*
X132083670Y-148315910D02*
X132178908Y-148268291D01*
X132607480Y-148649244D02*
X132702718Y-148696863D01*
X132702718Y-148696863D02*
X132893194Y-148696863D01*
X132893194Y-148696863D02*
X132988432Y-148649244D01*
X132988432Y-148649244D02*
X133036051Y-148554005D01*
X133036051Y-148554005D02*
X133036051Y-148506386D01*
X133036051Y-148506386D02*
X132988432Y-148411148D01*
X132988432Y-148411148D02*
X132893194Y-148363529D01*
X132893194Y-148363529D02*
X132750337Y-148363529D01*
X132750337Y-148363529D02*
X132655099Y-148315910D01*
X132655099Y-148315910D02*
X132607480Y-148220672D01*
X132607480Y-148220672D02*
X132607480Y-148173053D01*
X132607480Y-148173053D02*
X132655099Y-148077815D01*
X132655099Y-148077815D02*
X132750337Y-148030196D01*
X132750337Y-148030196D02*
X132893194Y-148030196D01*
X132893194Y-148030196D02*
X132988432Y-148077815D01*
X134226528Y-148696863D02*
X134226528Y-147696863D01*
X134226528Y-147696863D02*
X134559861Y-148411148D01*
X134559861Y-148411148D02*
X134893194Y-147696863D01*
X134893194Y-147696863D02*
X134893194Y-148696863D01*
X135797956Y-148030196D02*
X135797956Y-148696863D01*
X135369385Y-148030196D02*
X135369385Y-148554005D01*
X135369385Y-148554005D02*
X135417004Y-148649244D01*
X135417004Y-148649244D02*
X135512242Y-148696863D01*
X135512242Y-148696863D02*
X135655099Y-148696863D01*
X135655099Y-148696863D02*
X135750337Y-148649244D01*
X135750337Y-148649244D02*
X135797956Y-148601624D01*
X136226528Y-148649244D02*
X136321766Y-148696863D01*
X136321766Y-148696863D02*
X136512242Y-148696863D01*
X136512242Y-148696863D02*
X136607480Y-148649244D01*
X136607480Y-148649244D02*
X136655099Y-148554005D01*
X136655099Y-148554005D02*
X136655099Y-148506386D01*
X136655099Y-148506386D02*
X136607480Y-148411148D01*
X136607480Y-148411148D02*
X136512242Y-148363529D01*
X136512242Y-148363529D02*
X136369385Y-148363529D01*
X136369385Y-148363529D02*
X136274147Y-148315910D01*
X136274147Y-148315910D02*
X136226528Y-148220672D01*
X136226528Y-148220672D02*
X136226528Y-148173053D01*
X136226528Y-148173053D02*
X136274147Y-148077815D01*
X136274147Y-148077815D02*
X136369385Y-148030196D01*
X136369385Y-148030196D02*
X136512242Y-148030196D01*
X136512242Y-148030196D02*
X136607480Y-148077815D01*
X137083671Y-148696863D02*
X137083671Y-148030196D01*
X137083671Y-147696863D02*
X137036052Y-147744482D01*
X137036052Y-147744482D02*
X137083671Y-147792101D01*
X137083671Y-147792101D02*
X137131290Y-147744482D01*
X137131290Y-147744482D02*
X137083671Y-147696863D01*
X137083671Y-147696863D02*
X137083671Y-147792101D01*
X137988432Y-148649244D02*
X137893194Y-148696863D01*
X137893194Y-148696863D02*
X137702718Y-148696863D01*
X137702718Y-148696863D02*
X137607480Y-148649244D01*
X137607480Y-148649244D02*
X137559861Y-148601624D01*
X137559861Y-148601624D02*
X137512242Y-148506386D01*
X137512242Y-148506386D02*
X137512242Y-148220672D01*
X137512242Y-148220672D02*
X137559861Y-148125434D01*
X137559861Y-148125434D02*
X137607480Y-148077815D01*
X137607480Y-148077815D02*
X137702718Y-148030196D01*
X137702718Y-148030196D02*
X137893194Y-148030196D01*
X137893194Y-148030196D02*
X137988432Y-148077815D01*
X121702717Y-149782997D02*
X121845574Y-149830616D01*
X121845574Y-149830616D02*
X121893193Y-149878235D01*
X121893193Y-149878235D02*
X121940812Y-149973473D01*
X121940812Y-149973473D02*
X121940812Y-150116330D01*
X121940812Y-150116330D02*
X121893193Y-150211568D01*
X121893193Y-150211568D02*
X121845574Y-150259188D01*
X121845574Y-150259188D02*
X121750336Y-150306807D01*
X121750336Y-150306807D02*
X121369384Y-150306807D01*
X121369384Y-150306807D02*
X121369384Y-149306807D01*
X121369384Y-149306807D02*
X121702717Y-149306807D01*
X121702717Y-149306807D02*
X121797955Y-149354426D01*
X121797955Y-149354426D02*
X121845574Y-149402045D01*
X121845574Y-149402045D02*
X121893193Y-149497283D01*
X121893193Y-149497283D02*
X121893193Y-149592521D01*
X121893193Y-149592521D02*
X121845574Y-149687759D01*
X121845574Y-149687759D02*
X121797955Y-149735378D01*
X121797955Y-149735378D02*
X121702717Y-149782997D01*
X121702717Y-149782997D02*
X121369384Y-149782997D01*
X122797955Y-150306807D02*
X122797955Y-149782997D01*
X122797955Y-149782997D02*
X122750336Y-149687759D01*
X122750336Y-149687759D02*
X122655098Y-149640140D01*
X122655098Y-149640140D02*
X122464622Y-149640140D01*
X122464622Y-149640140D02*
X122369384Y-149687759D01*
X122797955Y-150259188D02*
X122702717Y-150306807D01*
X122702717Y-150306807D02*
X122464622Y-150306807D01*
X122464622Y-150306807D02*
X122369384Y-150259188D01*
X122369384Y-150259188D02*
X122321765Y-150163949D01*
X122321765Y-150163949D02*
X122321765Y-150068711D01*
X122321765Y-150068711D02*
X122369384Y-149973473D01*
X122369384Y-149973473D02*
X122464622Y-149925854D01*
X122464622Y-149925854D02*
X122702717Y-149925854D01*
X122702717Y-149925854D02*
X122797955Y-149878235D01*
X123178908Y-149640140D02*
X123417003Y-150306807D01*
X123655098Y-149640140D02*
X123417003Y-150306807D01*
X123417003Y-150306807D02*
X123321765Y-150544902D01*
X123321765Y-150544902D02*
X123274146Y-150592521D01*
X123274146Y-150592521D02*
X123178908Y-150640140D01*
X123940813Y-149640140D02*
X124178908Y-150306807D01*
X124178908Y-150306807D02*
X124417003Y-149640140D01*
X124797956Y-150306807D02*
X124797956Y-149640140D01*
X124797956Y-149306807D02*
X124750337Y-149354426D01*
X124750337Y-149354426D02*
X124797956Y-149402045D01*
X124797956Y-149402045D02*
X124845575Y-149354426D01*
X124845575Y-149354426D02*
X124797956Y-149306807D01*
X124797956Y-149306807D02*
X124797956Y-149402045D01*
X125417003Y-150306807D02*
X125321765Y-150259188D01*
X125321765Y-150259188D02*
X125274146Y-150163949D01*
X125274146Y-150163949D02*
X125274146Y-149306807D01*
X125940813Y-150306807D02*
X125845575Y-150259188D01*
X125845575Y-150259188D02*
X125797956Y-150163949D01*
X125797956Y-150163949D02*
X125797956Y-149306807D01*
X126702718Y-150259188D02*
X126607480Y-150306807D01*
X126607480Y-150306807D02*
X126417004Y-150306807D01*
X126417004Y-150306807D02*
X126321766Y-150259188D01*
X126321766Y-150259188D02*
X126274147Y-150163949D01*
X126274147Y-150163949D02*
X126274147Y-149782997D01*
X126274147Y-149782997D02*
X126321766Y-149687759D01*
X126321766Y-149687759D02*
X126417004Y-149640140D01*
X126417004Y-149640140D02*
X126607480Y-149640140D01*
X126607480Y-149640140D02*
X126702718Y-149687759D01*
X126702718Y-149687759D02*
X126750337Y-149782997D01*
X126750337Y-149782997D02*
X126750337Y-149878235D01*
X126750337Y-149878235D02*
X126274147Y-149973473D01*
X127226528Y-150259188D02*
X127226528Y-150306807D01*
X127226528Y-150306807D02*
X127178909Y-150402045D01*
X127178909Y-150402045D02*
X127131290Y-150449664D01*
X128417004Y-150306807D02*
X128417004Y-149306807D01*
X128417004Y-149306807D02*
X128988432Y-150306807D01*
X128988432Y-150306807D02*
X128988432Y-149306807D01*
X129750337Y-149306807D02*
X129750337Y-150021092D01*
X129750337Y-150021092D02*
X129702718Y-150163949D01*
X129702718Y-150163949D02*
X129607480Y-150259188D01*
X129607480Y-150259188D02*
X129464623Y-150306807D01*
X129464623Y-150306807D02*
X129369385Y-150306807D01*
X130988433Y-149306807D02*
X130988433Y-150116330D01*
X130988433Y-150116330D02*
X131036052Y-150211568D01*
X131036052Y-150211568D02*
X131083671Y-150259188D01*
X131083671Y-150259188D02*
X131178909Y-150306807D01*
X131178909Y-150306807D02*
X131369385Y-150306807D01*
X131369385Y-150306807D02*
X131464623Y-150259188D01*
X131464623Y-150259188D02*
X131512242Y-150211568D01*
X131512242Y-150211568D02*
X131559861Y-150116330D01*
X131559861Y-150116330D02*
X131559861Y-149306807D01*
X131988433Y-150259188D02*
X132131290Y-150306807D01*
X132131290Y-150306807D02*
X132369385Y-150306807D01*
X132369385Y-150306807D02*
X132464623Y-150259188D01*
X132464623Y-150259188D02*
X132512242Y-150211568D01*
X132512242Y-150211568D02*
X132559861Y-150116330D01*
X132559861Y-150116330D02*
X132559861Y-150021092D01*
X132559861Y-150021092D02*
X132512242Y-149925854D01*
X132512242Y-149925854D02*
X132464623Y-149878235D01*
X132464623Y-149878235D02*
X132369385Y-149830616D01*
X132369385Y-149830616D02*
X132178909Y-149782997D01*
X132178909Y-149782997D02*
X132083671Y-149735378D01*
X132083671Y-149735378D02*
X132036052Y-149687759D01*
X132036052Y-149687759D02*
X131988433Y-149592521D01*
X131988433Y-149592521D02*
X131988433Y-149497283D01*
X131988433Y-149497283D02*
X132036052Y-149402045D01*
X132036052Y-149402045D02*
X132083671Y-149354426D01*
X132083671Y-149354426D02*
X132178909Y-149306807D01*
X132178909Y-149306807D02*
X132417004Y-149306807D01*
X132417004Y-149306807D02*
X132559861Y-149354426D01*
X132940814Y-150021092D02*
X133417004Y-150021092D01*
X132845576Y-150306807D02*
X133178909Y-149306807D01*
X133178909Y-149306807D02*
X133512242Y-150306807D01*
X120113000Y-145092000D02*
X139713000Y-145092000D01*
X139713000Y-151094500D01*
X120113000Y-151094500D01*
X120113000Y-145092000D01*
D36*
X67603666Y-146451819D02*
X67603666Y-147166104D01*
X67603666Y-147166104D02*
X67556047Y-147308961D01*
X67556047Y-147308961D02*
X67460809Y-147404200D01*
X67460809Y-147404200D02*
X67317952Y-147451819D01*
X67317952Y-147451819D02*
X67222714Y-147451819D01*
X67984619Y-146451819D02*
X68651285Y-146451819D01*
X68651285Y-146451819D02*
X68222714Y-147451819D01*
X98794819Y-137644857D02*
X98318628Y-137978190D01*
X98794819Y-138216285D02*
X97794819Y-138216285D01*
X97794819Y-138216285D02*
X97794819Y-137835333D01*
X97794819Y-137835333D02*
X97842438Y-137740095D01*
X97842438Y-137740095D02*
X97890057Y-137692476D01*
X97890057Y-137692476D02*
X97985295Y-137644857D01*
X97985295Y-137644857D02*
X98128152Y-137644857D01*
X98128152Y-137644857D02*
X98223390Y-137692476D01*
X98223390Y-137692476D02*
X98271009Y-137740095D01*
X98271009Y-137740095D02*
X98318628Y-137835333D01*
X98318628Y-137835333D02*
X98318628Y-138216285D01*
X98794819Y-136692476D02*
X98794819Y-137263904D01*
X98794819Y-136978190D02*
X97794819Y-136978190D01*
X97794819Y-136978190D02*
X97937676Y-137073428D01*
X97937676Y-137073428D02*
X98032914Y-137168666D01*
X98032914Y-137168666D02*
X98080533Y-137263904D01*
X97794819Y-135787714D02*
X97794819Y-136263904D01*
X97794819Y-136263904D02*
X98271009Y-136311523D01*
X98271009Y-136311523D02*
X98223390Y-136263904D01*
X98223390Y-136263904D02*
X98175771Y-136168666D01*
X98175771Y-136168666D02*
X98175771Y-135930571D01*
X98175771Y-135930571D02*
X98223390Y-135835333D01*
X98223390Y-135835333D02*
X98271009Y-135787714D01*
X98271009Y-135787714D02*
X98366247Y-135740095D01*
X98366247Y-135740095D02*
X98604342Y-135740095D01*
X98604342Y-135740095D02*
X98699580Y-135787714D01*
X98699580Y-135787714D02*
X98747200Y-135835333D01*
X98747200Y-135835333D02*
X98794819Y-135930571D01*
X98794819Y-135930571D02*
X98794819Y-136168666D01*
X98794819Y-136168666D02*
X98747200Y-136263904D01*
X98747200Y-136263904D02*
X98699580Y-136311523D01*
X146597666Y-94635819D02*
X146597666Y-95350104D01*
X146597666Y-95350104D02*
X146550047Y-95492961D01*
X146550047Y-95492961D02*
X146454809Y-95588200D01*
X146454809Y-95588200D02*
X146311952Y-95635819D01*
X146311952Y-95635819D02*
X146216714Y-95635819D01*
X147502428Y-94969152D02*
X147502428Y-95635819D01*
X147264333Y-94588200D02*
X147026238Y-95302485D01*
X147026238Y-95302485D02*
X147645285Y-95302485D01*
X141890333Y-58726580D02*
X141842714Y-58774200D01*
X141842714Y-58774200D02*
X141699857Y-58821819D01*
X141699857Y-58821819D02*
X141604619Y-58821819D01*
X141604619Y-58821819D02*
X141461762Y-58774200D01*
X141461762Y-58774200D02*
X141366524Y-58678961D01*
X141366524Y-58678961D02*
X141318905Y-58583723D01*
X141318905Y-58583723D02*
X141271286Y-58393247D01*
X141271286Y-58393247D02*
X141271286Y-58250390D01*
X141271286Y-58250390D02*
X141318905Y-58059914D01*
X141318905Y-58059914D02*
X141366524Y-57964676D01*
X141366524Y-57964676D02*
X141461762Y-57869438D01*
X141461762Y-57869438D02*
X141604619Y-57821819D01*
X141604619Y-57821819D02*
X141699857Y-57821819D01*
X141699857Y-57821819D02*
X141842714Y-57869438D01*
X141842714Y-57869438D02*
X141890333Y-57917057D01*
X142747476Y-58155152D02*
X142747476Y-58821819D01*
X142509381Y-57774200D02*
X142271286Y-58488485D01*
X142271286Y-58488485D02*
X142890333Y-58488485D01*
X131560333Y-65326580D02*
X131512714Y-65374200D01*
X131512714Y-65374200D02*
X131369857Y-65421819D01*
X131369857Y-65421819D02*
X131274619Y-65421819D01*
X131274619Y-65421819D02*
X131131762Y-65374200D01*
X131131762Y-65374200D02*
X131036524Y-65278961D01*
X131036524Y-65278961D02*
X130988905Y-65183723D01*
X130988905Y-65183723D02*
X130941286Y-64993247D01*
X130941286Y-64993247D02*
X130941286Y-64850390D01*
X130941286Y-64850390D02*
X130988905Y-64659914D01*
X130988905Y-64659914D02*
X131036524Y-64564676D01*
X131036524Y-64564676D02*
X131131762Y-64469438D01*
X131131762Y-64469438D02*
X131274619Y-64421819D01*
X131274619Y-64421819D02*
X131369857Y-64421819D01*
X131369857Y-64421819D02*
X131512714Y-64469438D01*
X131512714Y-64469438D02*
X131560333Y-64517057D01*
X132036524Y-65421819D02*
X132227000Y-65421819D01*
X132227000Y-65421819D02*
X132322238Y-65374200D01*
X132322238Y-65374200D02*
X132369857Y-65326580D01*
X132369857Y-65326580D02*
X132465095Y-65183723D01*
X132465095Y-65183723D02*
X132512714Y-64993247D01*
X132512714Y-64993247D02*
X132512714Y-64612295D01*
X132512714Y-64612295D02*
X132465095Y-64517057D01*
X132465095Y-64517057D02*
X132417476Y-64469438D01*
X132417476Y-64469438D02*
X132322238Y-64421819D01*
X132322238Y-64421819D02*
X132131762Y-64421819D01*
X132131762Y-64421819D02*
X132036524Y-64469438D01*
X132036524Y-64469438D02*
X131988905Y-64517057D01*
X131988905Y-64517057D02*
X131941286Y-64612295D01*
X131941286Y-64612295D02*
X131941286Y-64850390D01*
X131941286Y-64850390D02*
X131988905Y-64945628D01*
X131988905Y-64945628D02*
X132036524Y-64993247D01*
X132036524Y-64993247D02*
X132131762Y-65040866D01*
X132131762Y-65040866D02*
X132322238Y-65040866D01*
X132322238Y-65040866D02*
X132417476Y-64993247D01*
X132417476Y-64993247D02*
X132465095Y-64945628D01*
X132465095Y-64945628D02*
X132512714Y-64850390D01*
X87241333Y-64029819D02*
X86908000Y-63553628D01*
X86669905Y-64029819D02*
X86669905Y-63029819D01*
X86669905Y-63029819D02*
X87050857Y-63029819D01*
X87050857Y-63029819D02*
X87146095Y-63077438D01*
X87146095Y-63077438D02*
X87193714Y-63125057D01*
X87193714Y-63125057D02*
X87241333Y-63220295D01*
X87241333Y-63220295D02*
X87241333Y-63363152D01*
X87241333Y-63363152D02*
X87193714Y-63458390D01*
X87193714Y-63458390D02*
X87146095Y-63506009D01*
X87146095Y-63506009D02*
X87050857Y-63553628D01*
X87050857Y-63553628D02*
X86669905Y-63553628D01*
X87622286Y-63125057D02*
X87669905Y-63077438D01*
X87669905Y-63077438D02*
X87765143Y-63029819D01*
X87765143Y-63029819D02*
X88003238Y-63029819D01*
X88003238Y-63029819D02*
X88098476Y-63077438D01*
X88098476Y-63077438D02*
X88146095Y-63125057D01*
X88146095Y-63125057D02*
X88193714Y-63220295D01*
X88193714Y-63220295D02*
X88193714Y-63315533D01*
X88193714Y-63315533D02*
X88146095Y-63458390D01*
X88146095Y-63458390D02*
X87574667Y-64029819D01*
X87574667Y-64029819D02*
X88193714Y-64029819D01*
X121705666Y-58948819D02*
X121705666Y-59663104D01*
X121705666Y-59663104D02*
X121658047Y-59805961D01*
X121658047Y-59805961D02*
X121562809Y-59901200D01*
X121562809Y-59901200D02*
X121419952Y-59948819D01*
X121419952Y-59948819D02*
X121324714Y-59948819D01*
X122134238Y-59044057D02*
X122181857Y-58996438D01*
X122181857Y-58996438D02*
X122277095Y-58948819D01*
X122277095Y-58948819D02*
X122515190Y-58948819D01*
X122515190Y-58948819D02*
X122610428Y-58996438D01*
X122610428Y-58996438D02*
X122658047Y-59044057D01*
X122658047Y-59044057D02*
X122705666Y-59139295D01*
X122705666Y-59139295D02*
X122705666Y-59234533D01*
X122705666Y-59234533D02*
X122658047Y-59377390D01*
X122658047Y-59377390D02*
X122086619Y-59948819D01*
X122086619Y-59948819D02*
X122705666Y-59948819D01*
X117794819Y-137704857D02*
X117318628Y-138038190D01*
X117794819Y-138276285D02*
X116794819Y-138276285D01*
X116794819Y-138276285D02*
X116794819Y-137895333D01*
X116794819Y-137895333D02*
X116842438Y-137800095D01*
X116842438Y-137800095D02*
X116890057Y-137752476D01*
X116890057Y-137752476D02*
X116985295Y-137704857D01*
X116985295Y-137704857D02*
X117128152Y-137704857D01*
X117128152Y-137704857D02*
X117223390Y-137752476D01*
X117223390Y-137752476D02*
X117271009Y-137800095D01*
X117271009Y-137800095D02*
X117318628Y-137895333D01*
X117318628Y-137895333D02*
X117318628Y-138276285D01*
X117794819Y-136752476D02*
X117794819Y-137323904D01*
X117794819Y-137038190D02*
X116794819Y-137038190D01*
X116794819Y-137038190D02*
X116937676Y-137133428D01*
X116937676Y-137133428D02*
X117032914Y-137228666D01*
X117032914Y-137228666D02*
X117080533Y-137323904D01*
X116794819Y-136133428D02*
X116794819Y-136038190D01*
X116794819Y-136038190D02*
X116842438Y-135942952D01*
X116842438Y-135942952D02*
X116890057Y-135895333D01*
X116890057Y-135895333D02*
X116985295Y-135847714D01*
X116985295Y-135847714D02*
X117175771Y-135800095D01*
X117175771Y-135800095D02*
X117413866Y-135800095D01*
X117413866Y-135800095D02*
X117604342Y-135847714D01*
X117604342Y-135847714D02*
X117699580Y-135895333D01*
X117699580Y-135895333D02*
X117747200Y-135942952D01*
X117747200Y-135942952D02*
X117794819Y-136038190D01*
X117794819Y-136038190D02*
X117794819Y-136133428D01*
X117794819Y-136133428D02*
X117747200Y-136228666D01*
X117747200Y-136228666D02*
X117699580Y-136276285D01*
X117699580Y-136276285D02*
X117604342Y-136323904D01*
X117604342Y-136323904D02*
X117413866Y-136371523D01*
X117413866Y-136371523D02*
X117175771Y-136371523D01*
X117175771Y-136371523D02*
X116985295Y-136323904D01*
X116985295Y-136323904D02*
X116890057Y-136276285D01*
X116890057Y-136276285D02*
X116842438Y-136228666D01*
X116842438Y-136228666D02*
X116794819Y-136133428D01*
X81740333Y-69854819D02*
X81407000Y-69378628D01*
X81168905Y-69854819D02*
X81168905Y-68854819D01*
X81168905Y-68854819D02*
X81549857Y-68854819D01*
X81549857Y-68854819D02*
X81645095Y-68902438D01*
X81645095Y-68902438D02*
X81692714Y-68950057D01*
X81692714Y-68950057D02*
X81740333Y-69045295D01*
X81740333Y-69045295D02*
X81740333Y-69188152D01*
X81740333Y-69188152D02*
X81692714Y-69283390D01*
X81692714Y-69283390D02*
X81645095Y-69331009D01*
X81645095Y-69331009D02*
X81549857Y-69378628D01*
X81549857Y-69378628D02*
X81168905Y-69378628D01*
X82645095Y-68854819D02*
X82168905Y-68854819D01*
X82168905Y-68854819D02*
X82121286Y-69331009D01*
X82121286Y-69331009D02*
X82168905Y-69283390D01*
X82168905Y-69283390D02*
X82264143Y-69235771D01*
X82264143Y-69235771D02*
X82502238Y-69235771D01*
X82502238Y-69235771D02*
X82597476Y-69283390D01*
X82597476Y-69283390D02*
X82645095Y-69331009D01*
X82645095Y-69331009D02*
X82692714Y-69426247D01*
X82692714Y-69426247D02*
X82692714Y-69664342D01*
X82692714Y-69664342D02*
X82645095Y-69759580D01*
X82645095Y-69759580D02*
X82597476Y-69807200D01*
X82597476Y-69807200D02*
X82502238Y-69854819D01*
X82502238Y-69854819D02*
X82264143Y-69854819D01*
X82264143Y-69854819D02*
X82168905Y-69807200D01*
X82168905Y-69807200D02*
X82121286Y-69759580D01*
X91124819Y-137988666D02*
X90648628Y-138321999D01*
X91124819Y-138560094D02*
X90124819Y-138560094D01*
X90124819Y-138560094D02*
X90124819Y-138179142D01*
X90124819Y-138179142D02*
X90172438Y-138083904D01*
X90172438Y-138083904D02*
X90220057Y-138036285D01*
X90220057Y-138036285D02*
X90315295Y-137988666D01*
X90315295Y-137988666D02*
X90458152Y-137988666D01*
X90458152Y-137988666D02*
X90553390Y-138036285D01*
X90553390Y-138036285D02*
X90601009Y-138083904D01*
X90601009Y-138083904D02*
X90648628Y-138179142D01*
X90648628Y-138179142D02*
X90648628Y-138560094D01*
X90553390Y-137417237D02*
X90505771Y-137512475D01*
X90505771Y-137512475D02*
X90458152Y-137560094D01*
X90458152Y-137560094D02*
X90362914Y-137607713D01*
X90362914Y-137607713D02*
X90315295Y-137607713D01*
X90315295Y-137607713D02*
X90220057Y-137560094D01*
X90220057Y-137560094D02*
X90172438Y-137512475D01*
X90172438Y-137512475D02*
X90124819Y-137417237D01*
X90124819Y-137417237D02*
X90124819Y-137226761D01*
X90124819Y-137226761D02*
X90172438Y-137131523D01*
X90172438Y-137131523D02*
X90220057Y-137083904D01*
X90220057Y-137083904D02*
X90315295Y-137036285D01*
X90315295Y-137036285D02*
X90362914Y-137036285D01*
X90362914Y-137036285D02*
X90458152Y-137083904D01*
X90458152Y-137083904D02*
X90505771Y-137131523D01*
X90505771Y-137131523D02*
X90553390Y-137226761D01*
X90553390Y-137226761D02*
X90553390Y-137417237D01*
X90553390Y-137417237D02*
X90601009Y-137512475D01*
X90601009Y-137512475D02*
X90648628Y-137560094D01*
X90648628Y-137560094D02*
X90743866Y-137607713D01*
X90743866Y-137607713D02*
X90934342Y-137607713D01*
X90934342Y-137607713D02*
X91029580Y-137560094D01*
X91029580Y-137560094D02*
X91077200Y-137512475D01*
X91077200Y-137512475D02*
X91124819Y-137417237D01*
X91124819Y-137417237D02*
X91124819Y-137226761D01*
X91124819Y-137226761D02*
X91077200Y-137131523D01*
X91077200Y-137131523D02*
X91029580Y-137083904D01*
X91029580Y-137083904D02*
X90934342Y-137036285D01*
X90934342Y-137036285D02*
X90743866Y-137036285D01*
X90743866Y-137036285D02*
X90648628Y-137083904D01*
X90648628Y-137083904D02*
X90601009Y-137131523D01*
X90601009Y-137131523D02*
X90553390Y-137226761D01*
X106264819Y-137704857D02*
X105788628Y-138038190D01*
X106264819Y-138276285D02*
X105264819Y-138276285D01*
X105264819Y-138276285D02*
X105264819Y-137895333D01*
X105264819Y-137895333D02*
X105312438Y-137800095D01*
X105312438Y-137800095D02*
X105360057Y-137752476D01*
X105360057Y-137752476D02*
X105455295Y-137704857D01*
X105455295Y-137704857D02*
X105598152Y-137704857D01*
X105598152Y-137704857D02*
X105693390Y-137752476D01*
X105693390Y-137752476D02*
X105741009Y-137800095D01*
X105741009Y-137800095D02*
X105788628Y-137895333D01*
X105788628Y-137895333D02*
X105788628Y-138276285D01*
X106264819Y-136752476D02*
X106264819Y-137323904D01*
X106264819Y-137038190D02*
X105264819Y-137038190D01*
X105264819Y-137038190D02*
X105407676Y-137133428D01*
X105407676Y-137133428D02*
X105502914Y-137228666D01*
X105502914Y-137228666D02*
X105550533Y-137323904D01*
X105264819Y-136419142D02*
X105264819Y-135800095D01*
X105264819Y-135800095D02*
X105645771Y-136133428D01*
X105645771Y-136133428D02*
X105645771Y-135990571D01*
X105645771Y-135990571D02*
X105693390Y-135895333D01*
X105693390Y-135895333D02*
X105741009Y-135847714D01*
X105741009Y-135847714D02*
X105836247Y-135800095D01*
X105836247Y-135800095D02*
X106074342Y-135800095D01*
X106074342Y-135800095D02*
X106169580Y-135847714D01*
X106169580Y-135847714D02*
X106217200Y-135895333D01*
X106217200Y-135895333D02*
X106264819Y-135990571D01*
X106264819Y-135990571D02*
X106264819Y-136276285D01*
X106264819Y-136276285D02*
X106217200Y-136371523D01*
X106217200Y-136371523D02*
X106169580Y-136419142D01*
X143368666Y-75331819D02*
X143368666Y-76046104D01*
X143368666Y-76046104D02*
X143321047Y-76188961D01*
X143321047Y-76188961D02*
X143225809Y-76284200D01*
X143225809Y-76284200D02*
X143082952Y-76331819D01*
X143082952Y-76331819D02*
X142987714Y-76331819D01*
X144273428Y-75331819D02*
X144082952Y-75331819D01*
X144082952Y-75331819D02*
X143987714Y-75379438D01*
X143987714Y-75379438D02*
X143940095Y-75427057D01*
X143940095Y-75427057D02*
X143844857Y-75569914D01*
X143844857Y-75569914D02*
X143797238Y-75760390D01*
X143797238Y-75760390D02*
X143797238Y-76141342D01*
X143797238Y-76141342D02*
X143844857Y-76236580D01*
X143844857Y-76236580D02*
X143892476Y-76284200D01*
X143892476Y-76284200D02*
X143987714Y-76331819D01*
X143987714Y-76331819D02*
X144178190Y-76331819D01*
X144178190Y-76331819D02*
X144273428Y-76284200D01*
X144273428Y-76284200D02*
X144321047Y-76236580D01*
X144321047Y-76236580D02*
X144368666Y-76141342D01*
X144368666Y-76141342D02*
X144368666Y-75903247D01*
X144368666Y-75903247D02*
X144321047Y-75808009D01*
X144321047Y-75808009D02*
X144273428Y-75760390D01*
X144273428Y-75760390D02*
X144178190Y-75712771D01*
X144178190Y-75712771D02*
X143987714Y-75712771D01*
X143987714Y-75712771D02*
X143892476Y-75760390D01*
X143892476Y-75760390D02*
X143844857Y-75808009D01*
X143844857Y-75808009D02*
X143797238Y-75903247D01*
X61888666Y-93111819D02*
X61888666Y-93826104D01*
X61888666Y-93826104D02*
X61841047Y-93968961D01*
X61841047Y-93968961D02*
X61745809Y-94064200D01*
X61745809Y-94064200D02*
X61602952Y-94111819D01*
X61602952Y-94111819D02*
X61507714Y-94111819D01*
X62412476Y-94111819D02*
X62602952Y-94111819D01*
X62602952Y-94111819D02*
X62698190Y-94064200D01*
X62698190Y-94064200D02*
X62745809Y-94016580D01*
X62745809Y-94016580D02*
X62841047Y-93873723D01*
X62841047Y-93873723D02*
X62888666Y-93683247D01*
X62888666Y-93683247D02*
X62888666Y-93302295D01*
X62888666Y-93302295D02*
X62841047Y-93207057D01*
X62841047Y-93207057D02*
X62793428Y-93159438D01*
X62793428Y-93159438D02*
X62698190Y-93111819D01*
X62698190Y-93111819D02*
X62507714Y-93111819D01*
X62507714Y-93111819D02*
X62412476Y-93159438D01*
X62412476Y-93159438D02*
X62364857Y-93207057D01*
X62364857Y-93207057D02*
X62317238Y-93302295D01*
X62317238Y-93302295D02*
X62317238Y-93540390D01*
X62317238Y-93540390D02*
X62364857Y-93635628D01*
X62364857Y-93635628D02*
X62412476Y-93683247D01*
X62412476Y-93683247D02*
X62507714Y-93730866D01*
X62507714Y-93730866D02*
X62698190Y-93730866D01*
X62698190Y-93730866D02*
X62793428Y-93683247D01*
X62793428Y-93683247D02*
X62841047Y-93635628D01*
X62841047Y-93635628D02*
X62888666Y-93540390D01*
X81740333Y-76077819D02*
X81407000Y-75601628D01*
X81168905Y-76077819D02*
X81168905Y-75077819D01*
X81168905Y-75077819D02*
X81549857Y-75077819D01*
X81549857Y-75077819D02*
X81645095Y-75125438D01*
X81645095Y-75125438D02*
X81692714Y-75173057D01*
X81692714Y-75173057D02*
X81740333Y-75268295D01*
X81740333Y-75268295D02*
X81740333Y-75411152D01*
X81740333Y-75411152D02*
X81692714Y-75506390D01*
X81692714Y-75506390D02*
X81645095Y-75554009D01*
X81645095Y-75554009D02*
X81549857Y-75601628D01*
X81549857Y-75601628D02*
X81168905Y-75601628D01*
X82073667Y-75077819D02*
X82692714Y-75077819D01*
X82692714Y-75077819D02*
X82359381Y-75458771D01*
X82359381Y-75458771D02*
X82502238Y-75458771D01*
X82502238Y-75458771D02*
X82597476Y-75506390D01*
X82597476Y-75506390D02*
X82645095Y-75554009D01*
X82645095Y-75554009D02*
X82692714Y-75649247D01*
X82692714Y-75649247D02*
X82692714Y-75887342D01*
X82692714Y-75887342D02*
X82645095Y-75982580D01*
X82645095Y-75982580D02*
X82597476Y-76030200D01*
X82597476Y-76030200D02*
X82502238Y-76077819D01*
X82502238Y-76077819D02*
X82216524Y-76077819D01*
X82216524Y-76077819D02*
X82121286Y-76030200D01*
X82121286Y-76030200D02*
X82073667Y-75982580D01*
X66921095Y-93365819D02*
X66921095Y-94175342D01*
X66921095Y-94175342D02*
X66968714Y-94270580D01*
X66968714Y-94270580D02*
X67016333Y-94318200D01*
X67016333Y-94318200D02*
X67111571Y-94365819D01*
X67111571Y-94365819D02*
X67302047Y-94365819D01*
X67302047Y-94365819D02*
X67397285Y-94318200D01*
X67397285Y-94318200D02*
X67444904Y-94270580D01*
X67444904Y-94270580D02*
X67492523Y-94175342D01*
X67492523Y-94175342D02*
X67492523Y-93365819D01*
X67873476Y-93365819D02*
X68540142Y-93365819D01*
X68540142Y-93365819D02*
X68111571Y-94365819D01*
D37*
X70144380Y-65275318D02*
X70144380Y-66303413D01*
X70144380Y-66303413D02*
X70204857Y-66424365D01*
X70204857Y-66424365D02*
X70265333Y-66484842D01*
X70265333Y-66484842D02*
X70386285Y-66545318D01*
X70386285Y-66545318D02*
X70628190Y-66545318D01*
X70628190Y-66545318D02*
X70749142Y-66484842D01*
X70749142Y-66484842D02*
X70809619Y-66424365D01*
X70809619Y-66424365D02*
X70870095Y-66303413D01*
X70870095Y-66303413D02*
X70870095Y-65275318D01*
X72140095Y-66545318D02*
X71414380Y-66545318D01*
X71777237Y-66545318D02*
X71777237Y-65275318D01*
X71777237Y-65275318D02*
X71656285Y-65456746D01*
X71656285Y-65456746D02*
X71535333Y-65577699D01*
X71535333Y-65577699D02*
X71414380Y-65638175D01*
D36*
X91550333Y-84409819D02*
X91217000Y-83933628D01*
X90978905Y-84409819D02*
X90978905Y-83409819D01*
X90978905Y-83409819D02*
X91359857Y-83409819D01*
X91359857Y-83409819D02*
X91455095Y-83457438D01*
X91455095Y-83457438D02*
X91502714Y-83505057D01*
X91502714Y-83505057D02*
X91550333Y-83600295D01*
X91550333Y-83600295D02*
X91550333Y-83743152D01*
X91550333Y-83743152D02*
X91502714Y-83838390D01*
X91502714Y-83838390D02*
X91455095Y-83886009D01*
X91455095Y-83886009D02*
X91359857Y-83933628D01*
X91359857Y-83933628D02*
X90978905Y-83933628D01*
X92407476Y-83409819D02*
X92217000Y-83409819D01*
X92217000Y-83409819D02*
X92121762Y-83457438D01*
X92121762Y-83457438D02*
X92074143Y-83505057D01*
X92074143Y-83505057D02*
X91978905Y-83647914D01*
X91978905Y-83647914D02*
X91931286Y-83838390D01*
X91931286Y-83838390D02*
X91931286Y-84219342D01*
X91931286Y-84219342D02*
X91978905Y-84314580D01*
X91978905Y-84314580D02*
X92026524Y-84362200D01*
X92026524Y-84362200D02*
X92121762Y-84409819D01*
X92121762Y-84409819D02*
X92312238Y-84409819D01*
X92312238Y-84409819D02*
X92407476Y-84362200D01*
X92407476Y-84362200D02*
X92455095Y-84314580D01*
X92455095Y-84314580D02*
X92502714Y-84219342D01*
X92502714Y-84219342D02*
X92502714Y-83981247D01*
X92502714Y-83981247D02*
X92455095Y-83886009D01*
X92455095Y-83886009D02*
X92407476Y-83838390D01*
X92407476Y-83838390D02*
X92312238Y-83790771D01*
X92312238Y-83790771D02*
X92121762Y-83790771D01*
X92121762Y-83790771D02*
X92026524Y-83838390D01*
X92026524Y-83838390D02*
X91978905Y-83886009D01*
X91978905Y-83886009D02*
X91931286Y-83981247D01*
X81740333Y-72902819D02*
X81407000Y-72426628D01*
X81168905Y-72902819D02*
X81168905Y-71902819D01*
X81168905Y-71902819D02*
X81549857Y-71902819D01*
X81549857Y-71902819D02*
X81645095Y-71950438D01*
X81645095Y-71950438D02*
X81692714Y-71998057D01*
X81692714Y-71998057D02*
X81740333Y-72093295D01*
X81740333Y-72093295D02*
X81740333Y-72236152D01*
X81740333Y-72236152D02*
X81692714Y-72331390D01*
X81692714Y-72331390D02*
X81645095Y-72379009D01*
X81645095Y-72379009D02*
X81549857Y-72426628D01*
X81549857Y-72426628D02*
X81168905Y-72426628D01*
X82597476Y-72236152D02*
X82597476Y-72902819D01*
X82359381Y-71855200D02*
X82121286Y-72569485D01*
X82121286Y-72569485D02*
X82740333Y-72569485D01*
X133810333Y-57976580D02*
X133762714Y-58024200D01*
X133762714Y-58024200D02*
X133619857Y-58071819D01*
X133619857Y-58071819D02*
X133524619Y-58071819D01*
X133524619Y-58071819D02*
X133381762Y-58024200D01*
X133381762Y-58024200D02*
X133286524Y-57928961D01*
X133286524Y-57928961D02*
X133238905Y-57833723D01*
X133238905Y-57833723D02*
X133191286Y-57643247D01*
X133191286Y-57643247D02*
X133191286Y-57500390D01*
X133191286Y-57500390D02*
X133238905Y-57309914D01*
X133238905Y-57309914D02*
X133286524Y-57214676D01*
X133286524Y-57214676D02*
X133381762Y-57119438D01*
X133381762Y-57119438D02*
X133524619Y-57071819D01*
X133524619Y-57071819D02*
X133619857Y-57071819D01*
X133619857Y-57071819D02*
X133762714Y-57119438D01*
X133762714Y-57119438D02*
X133810333Y-57167057D01*
X134762714Y-58071819D02*
X134191286Y-58071819D01*
X134477000Y-58071819D02*
X134477000Y-57071819D01*
X134477000Y-57071819D02*
X134381762Y-57214676D01*
X134381762Y-57214676D02*
X134286524Y-57309914D01*
X134286524Y-57309914D02*
X134191286Y-57357533D01*
X106042095Y-65381819D02*
X106042095Y-66191342D01*
X106042095Y-66191342D02*
X106089714Y-66286580D01*
X106089714Y-66286580D02*
X106137333Y-66334200D01*
X106137333Y-66334200D02*
X106232571Y-66381819D01*
X106232571Y-66381819D02*
X106423047Y-66381819D01*
X106423047Y-66381819D02*
X106518285Y-66334200D01*
X106518285Y-66334200D02*
X106565904Y-66286580D01*
X106565904Y-66286580D02*
X106613523Y-66191342D01*
X106613523Y-66191342D02*
X106613523Y-65381819D01*
X107042095Y-65477057D02*
X107089714Y-65429438D01*
X107089714Y-65429438D02*
X107184952Y-65381819D01*
X107184952Y-65381819D02*
X107423047Y-65381819D01*
X107423047Y-65381819D02*
X107518285Y-65429438D01*
X107518285Y-65429438D02*
X107565904Y-65477057D01*
X107565904Y-65477057D02*
X107613523Y-65572295D01*
X107613523Y-65572295D02*
X107613523Y-65667533D01*
X107613523Y-65667533D02*
X107565904Y-65810390D01*
X107565904Y-65810390D02*
X106994476Y-66381819D01*
X106994476Y-66381819D02*
X107613523Y-66381819D01*
X64380476Y-80682819D02*
X64380476Y-81397104D01*
X64380476Y-81397104D02*
X64332857Y-81539961D01*
X64332857Y-81539961D02*
X64237619Y-81635200D01*
X64237619Y-81635200D02*
X64094762Y-81682819D01*
X64094762Y-81682819D02*
X63999524Y-81682819D01*
X65380476Y-81682819D02*
X64809048Y-81682819D01*
X65094762Y-81682819D02*
X65094762Y-80682819D01*
X65094762Y-80682819D02*
X64999524Y-80825676D01*
X64999524Y-80825676D02*
X64904286Y-80920914D01*
X64904286Y-80920914D02*
X64809048Y-80968533D01*
X65999524Y-80682819D02*
X66094762Y-80682819D01*
X66094762Y-80682819D02*
X66190000Y-80730438D01*
X66190000Y-80730438D02*
X66237619Y-80778057D01*
X66237619Y-80778057D02*
X66285238Y-80873295D01*
X66285238Y-80873295D02*
X66332857Y-81063771D01*
X66332857Y-81063771D02*
X66332857Y-81301866D01*
X66332857Y-81301866D02*
X66285238Y-81492342D01*
X66285238Y-81492342D02*
X66237619Y-81587580D01*
X66237619Y-81587580D02*
X66190000Y-81635200D01*
X66190000Y-81635200D02*
X66094762Y-81682819D01*
X66094762Y-81682819D02*
X65999524Y-81682819D01*
X65999524Y-81682819D02*
X65904286Y-81635200D01*
X65904286Y-81635200D02*
X65856667Y-81587580D01*
X65856667Y-81587580D02*
X65809048Y-81492342D01*
X65809048Y-81492342D02*
X65761429Y-81301866D01*
X65761429Y-81301866D02*
X65761429Y-81063771D01*
X65761429Y-81063771D02*
X65809048Y-80873295D01*
X65809048Y-80873295D02*
X65856667Y-80778057D01*
X65856667Y-80778057D02*
X65904286Y-80730438D01*
X65904286Y-80730438D02*
X65999524Y-80682819D01*
X102504819Y-137704857D02*
X102028628Y-138038190D01*
X102504819Y-138276285D02*
X101504819Y-138276285D01*
X101504819Y-138276285D02*
X101504819Y-137895333D01*
X101504819Y-137895333D02*
X101552438Y-137800095D01*
X101552438Y-137800095D02*
X101600057Y-137752476D01*
X101600057Y-137752476D02*
X101695295Y-137704857D01*
X101695295Y-137704857D02*
X101838152Y-137704857D01*
X101838152Y-137704857D02*
X101933390Y-137752476D01*
X101933390Y-137752476D02*
X101981009Y-137800095D01*
X101981009Y-137800095D02*
X102028628Y-137895333D01*
X102028628Y-137895333D02*
X102028628Y-138276285D01*
X102504819Y-136752476D02*
X102504819Y-137323904D01*
X102504819Y-137038190D02*
X101504819Y-137038190D01*
X101504819Y-137038190D02*
X101647676Y-137133428D01*
X101647676Y-137133428D02*
X101742914Y-137228666D01*
X101742914Y-137228666D02*
X101790533Y-137323904D01*
X101838152Y-135895333D02*
X102504819Y-135895333D01*
X101457200Y-136133428D02*
X102171485Y-136371523D01*
X102171485Y-136371523D02*
X102171485Y-135752476D01*
X64301666Y-59202819D02*
X64301666Y-59917104D01*
X64301666Y-59917104D02*
X64254047Y-60059961D01*
X64254047Y-60059961D02*
X64158809Y-60155200D01*
X64158809Y-60155200D02*
X64015952Y-60202819D01*
X64015952Y-60202819D02*
X63920714Y-60202819D01*
X65301666Y-60202819D02*
X64730238Y-60202819D01*
X65015952Y-60202819D02*
X65015952Y-59202819D01*
X65015952Y-59202819D02*
X64920714Y-59345676D01*
X64920714Y-59345676D02*
X64825476Y-59440914D01*
X64825476Y-59440914D02*
X64730238Y-59488533D01*
D37*
X145709380Y-69085318D02*
X145709380Y-70113413D01*
X145709380Y-70113413D02*
X145769857Y-70234365D01*
X145769857Y-70234365D02*
X145830333Y-70294842D01*
X145830333Y-70294842D02*
X145951285Y-70355318D01*
X145951285Y-70355318D02*
X146193190Y-70355318D01*
X146193190Y-70355318D02*
X146314142Y-70294842D01*
X146314142Y-70294842D02*
X146374619Y-70234365D01*
X146374619Y-70234365D02*
X146435095Y-70113413D01*
X146435095Y-70113413D02*
X146435095Y-69085318D01*
X146918904Y-69085318D02*
X147705095Y-69085318D01*
X147705095Y-69085318D02*
X147281761Y-69569127D01*
X147281761Y-69569127D02*
X147463190Y-69569127D01*
X147463190Y-69569127D02*
X147584142Y-69629603D01*
X147584142Y-69629603D02*
X147644618Y-69690080D01*
X147644618Y-69690080D02*
X147705095Y-69811032D01*
X147705095Y-69811032D02*
X147705095Y-70113413D01*
X147705095Y-70113413D02*
X147644618Y-70234365D01*
X147644618Y-70234365D02*
X147584142Y-70294842D01*
X147584142Y-70294842D02*
X147463190Y-70355318D01*
X147463190Y-70355318D02*
X147100333Y-70355318D01*
X147100333Y-70355318D02*
X146979380Y-70294842D01*
X146979380Y-70294842D02*
X146918904Y-70234365D01*
D36*
X87241333Y-60219819D02*
X86908000Y-59743628D01*
X86669905Y-60219819D02*
X86669905Y-59219819D01*
X86669905Y-59219819D02*
X87050857Y-59219819D01*
X87050857Y-59219819D02*
X87146095Y-59267438D01*
X87146095Y-59267438D02*
X87193714Y-59315057D01*
X87193714Y-59315057D02*
X87241333Y-59410295D01*
X87241333Y-59410295D02*
X87241333Y-59553152D01*
X87241333Y-59553152D02*
X87193714Y-59648390D01*
X87193714Y-59648390D02*
X87146095Y-59696009D01*
X87146095Y-59696009D02*
X87050857Y-59743628D01*
X87050857Y-59743628D02*
X86669905Y-59743628D01*
X88193714Y-60219819D02*
X87622286Y-60219819D01*
X87908000Y-60219819D02*
X87908000Y-59219819D01*
X87908000Y-59219819D02*
X87812762Y-59362676D01*
X87812762Y-59362676D02*
X87717524Y-59457914D01*
X87717524Y-59457914D02*
X87622286Y-59505533D01*
X91550333Y-88131819D02*
X91217000Y-87655628D01*
X90978905Y-88131819D02*
X90978905Y-87131819D01*
X90978905Y-87131819D02*
X91359857Y-87131819D01*
X91359857Y-87131819D02*
X91455095Y-87179438D01*
X91455095Y-87179438D02*
X91502714Y-87227057D01*
X91502714Y-87227057D02*
X91550333Y-87322295D01*
X91550333Y-87322295D02*
X91550333Y-87465152D01*
X91550333Y-87465152D02*
X91502714Y-87560390D01*
X91502714Y-87560390D02*
X91455095Y-87608009D01*
X91455095Y-87608009D02*
X91359857Y-87655628D01*
X91359857Y-87655628D02*
X90978905Y-87655628D01*
X91883667Y-87131819D02*
X92550333Y-87131819D01*
X92550333Y-87131819D02*
X92121762Y-88131819D01*
X99988666Y-62250819D02*
X99988666Y-62965104D01*
X99988666Y-62965104D02*
X99941047Y-63107961D01*
X99941047Y-63107961D02*
X99845809Y-63203200D01*
X99845809Y-63203200D02*
X99702952Y-63250819D01*
X99702952Y-63250819D02*
X99607714Y-63250819D01*
X100369619Y-62250819D02*
X100988666Y-62250819D01*
X100988666Y-62250819D02*
X100655333Y-62631771D01*
X100655333Y-62631771D02*
X100798190Y-62631771D01*
X100798190Y-62631771D02*
X100893428Y-62679390D01*
X100893428Y-62679390D02*
X100941047Y-62727009D01*
X100941047Y-62727009D02*
X100988666Y-62822247D01*
X100988666Y-62822247D02*
X100988666Y-63060342D01*
X100988666Y-63060342D02*
X100941047Y-63155580D01*
X100941047Y-63155580D02*
X100893428Y-63203200D01*
X100893428Y-63203200D02*
X100798190Y-63250819D01*
X100798190Y-63250819D02*
X100512476Y-63250819D01*
X100512476Y-63250819D02*
X100417238Y-63203200D01*
X100417238Y-63203200D02*
X100369619Y-63155580D01*
X113490333Y-73136580D02*
X113442714Y-73184200D01*
X113442714Y-73184200D02*
X113299857Y-73231819D01*
X113299857Y-73231819D02*
X113204619Y-73231819D01*
X113204619Y-73231819D02*
X113061762Y-73184200D01*
X113061762Y-73184200D02*
X112966524Y-73088961D01*
X112966524Y-73088961D02*
X112918905Y-72993723D01*
X112918905Y-72993723D02*
X112871286Y-72803247D01*
X112871286Y-72803247D02*
X112871286Y-72660390D01*
X112871286Y-72660390D02*
X112918905Y-72469914D01*
X112918905Y-72469914D02*
X112966524Y-72374676D01*
X112966524Y-72374676D02*
X113061762Y-72279438D01*
X113061762Y-72279438D02*
X113204619Y-72231819D01*
X113204619Y-72231819D02*
X113299857Y-72231819D01*
X113299857Y-72231819D02*
X113442714Y-72279438D01*
X113442714Y-72279438D02*
X113490333Y-72327057D01*
X113823667Y-72231819D02*
X114442714Y-72231819D01*
X114442714Y-72231819D02*
X114109381Y-72612771D01*
X114109381Y-72612771D02*
X114252238Y-72612771D01*
X114252238Y-72612771D02*
X114347476Y-72660390D01*
X114347476Y-72660390D02*
X114395095Y-72708009D01*
X114395095Y-72708009D02*
X114442714Y-72803247D01*
X114442714Y-72803247D02*
X114442714Y-73041342D01*
X114442714Y-73041342D02*
X114395095Y-73136580D01*
X114395095Y-73136580D02*
X114347476Y-73184200D01*
X114347476Y-73184200D02*
X114252238Y-73231819D01*
X114252238Y-73231819D02*
X113966524Y-73231819D01*
X113966524Y-73231819D02*
X113871286Y-73184200D01*
X113871286Y-73184200D02*
X113823667Y-73136580D01*
X77763666Y-146451819D02*
X77763666Y-147166104D01*
X77763666Y-147166104D02*
X77716047Y-147308961D01*
X77716047Y-147308961D02*
X77620809Y-147404200D01*
X77620809Y-147404200D02*
X77477952Y-147451819D01*
X77477952Y-147451819D02*
X77382714Y-147451819D01*
X78382714Y-146880390D02*
X78287476Y-146832771D01*
X78287476Y-146832771D02*
X78239857Y-146785152D01*
X78239857Y-146785152D02*
X78192238Y-146689914D01*
X78192238Y-146689914D02*
X78192238Y-146642295D01*
X78192238Y-146642295D02*
X78239857Y-146547057D01*
X78239857Y-146547057D02*
X78287476Y-146499438D01*
X78287476Y-146499438D02*
X78382714Y-146451819D01*
X78382714Y-146451819D02*
X78573190Y-146451819D01*
X78573190Y-146451819D02*
X78668428Y-146499438D01*
X78668428Y-146499438D02*
X78716047Y-146547057D01*
X78716047Y-146547057D02*
X78763666Y-146642295D01*
X78763666Y-146642295D02*
X78763666Y-146689914D01*
X78763666Y-146689914D02*
X78716047Y-146785152D01*
X78716047Y-146785152D02*
X78668428Y-146832771D01*
X78668428Y-146832771D02*
X78573190Y-146880390D01*
X78573190Y-146880390D02*
X78382714Y-146880390D01*
X78382714Y-146880390D02*
X78287476Y-146928009D01*
X78287476Y-146928009D02*
X78239857Y-146975628D01*
X78239857Y-146975628D02*
X78192238Y-147070866D01*
X78192238Y-147070866D02*
X78192238Y-147261342D01*
X78192238Y-147261342D02*
X78239857Y-147356580D01*
X78239857Y-147356580D02*
X78287476Y-147404200D01*
X78287476Y-147404200D02*
X78382714Y-147451819D01*
X78382714Y-147451819D02*
X78573190Y-147451819D01*
X78573190Y-147451819D02*
X78668428Y-147404200D01*
X78668428Y-147404200D02*
X78716047Y-147356580D01*
X78716047Y-147356580D02*
X78763666Y-147261342D01*
X78763666Y-147261342D02*
X78763666Y-147070866D01*
X78763666Y-147070866D02*
X78716047Y-146975628D01*
X78716047Y-146975628D02*
X78668428Y-146928009D01*
X78668428Y-146928009D02*
X78573190Y-146880390D01*
X94297333Y-74839580D02*
X94249714Y-74887200D01*
X94249714Y-74887200D02*
X94106857Y-74934819D01*
X94106857Y-74934819D02*
X94011619Y-74934819D01*
X94011619Y-74934819D02*
X93868762Y-74887200D01*
X93868762Y-74887200D02*
X93773524Y-74791961D01*
X93773524Y-74791961D02*
X93725905Y-74696723D01*
X93725905Y-74696723D02*
X93678286Y-74506247D01*
X93678286Y-74506247D02*
X93678286Y-74363390D01*
X93678286Y-74363390D02*
X93725905Y-74172914D01*
X93725905Y-74172914D02*
X93773524Y-74077676D01*
X93773524Y-74077676D02*
X93868762Y-73982438D01*
X93868762Y-73982438D02*
X94011619Y-73934819D01*
X94011619Y-73934819D02*
X94106857Y-73934819D01*
X94106857Y-73934819D02*
X94249714Y-73982438D01*
X94249714Y-73982438D02*
X94297333Y-74030057D01*
X94678286Y-74030057D02*
X94725905Y-73982438D01*
X94725905Y-73982438D02*
X94821143Y-73934819D01*
X94821143Y-73934819D02*
X95059238Y-73934819D01*
X95059238Y-73934819D02*
X95154476Y-73982438D01*
X95154476Y-73982438D02*
X95202095Y-74030057D01*
X95202095Y-74030057D02*
X95249714Y-74125295D01*
X95249714Y-74125295D02*
X95249714Y-74220533D01*
X95249714Y-74220533D02*
X95202095Y-74363390D01*
X95202095Y-74363390D02*
X94630667Y-74934819D01*
X94630667Y-74934819D02*
X95249714Y-74934819D01*
X114034819Y-137704857D02*
X113558628Y-138038190D01*
X114034819Y-138276285D02*
X113034819Y-138276285D01*
X113034819Y-138276285D02*
X113034819Y-137895333D01*
X113034819Y-137895333D02*
X113082438Y-137800095D01*
X113082438Y-137800095D02*
X113130057Y-137752476D01*
X113130057Y-137752476D02*
X113225295Y-137704857D01*
X113225295Y-137704857D02*
X113368152Y-137704857D01*
X113368152Y-137704857D02*
X113463390Y-137752476D01*
X113463390Y-137752476D02*
X113511009Y-137800095D01*
X113511009Y-137800095D02*
X113558628Y-137895333D01*
X113558628Y-137895333D02*
X113558628Y-138276285D01*
X114034819Y-136752476D02*
X114034819Y-137323904D01*
X114034819Y-137038190D02*
X113034819Y-137038190D01*
X113034819Y-137038190D02*
X113177676Y-137133428D01*
X113177676Y-137133428D02*
X113272914Y-137228666D01*
X113272914Y-137228666D02*
X113320533Y-137323904D01*
X114034819Y-135800095D02*
X114034819Y-136371523D01*
X114034819Y-136085809D02*
X113034819Y-136085809D01*
X113034819Y-136085809D02*
X113177676Y-136181047D01*
X113177676Y-136181047D02*
X113272914Y-136276285D01*
X113272914Y-136276285D02*
X113320533Y-136371523D01*
X94313333Y-67219580D02*
X94265714Y-67267200D01*
X94265714Y-67267200D02*
X94122857Y-67314819D01*
X94122857Y-67314819D02*
X94027619Y-67314819D01*
X94027619Y-67314819D02*
X93884762Y-67267200D01*
X93884762Y-67267200D02*
X93789524Y-67171961D01*
X93789524Y-67171961D02*
X93741905Y-67076723D01*
X93741905Y-67076723D02*
X93694286Y-66886247D01*
X93694286Y-66886247D02*
X93694286Y-66743390D01*
X93694286Y-66743390D02*
X93741905Y-66552914D01*
X93741905Y-66552914D02*
X93789524Y-66457676D01*
X93789524Y-66457676D02*
X93884762Y-66362438D01*
X93884762Y-66362438D02*
X94027619Y-66314819D01*
X94027619Y-66314819D02*
X94122857Y-66314819D01*
X94122857Y-66314819D02*
X94265714Y-66362438D01*
X94265714Y-66362438D02*
X94313333Y-66410057D01*
X95170476Y-66314819D02*
X94980000Y-66314819D01*
X94980000Y-66314819D02*
X94884762Y-66362438D01*
X94884762Y-66362438D02*
X94837143Y-66410057D01*
X94837143Y-66410057D02*
X94741905Y-66552914D01*
X94741905Y-66552914D02*
X94694286Y-66743390D01*
X94694286Y-66743390D02*
X94694286Y-67124342D01*
X94694286Y-67124342D02*
X94741905Y-67219580D01*
X94741905Y-67219580D02*
X94789524Y-67267200D01*
X94789524Y-67267200D02*
X94884762Y-67314819D01*
X94884762Y-67314819D02*
X95075238Y-67314819D01*
X95075238Y-67314819D02*
X95170476Y-67267200D01*
X95170476Y-67267200D02*
X95218095Y-67219580D01*
X95218095Y-67219580D02*
X95265714Y-67124342D01*
X95265714Y-67124342D02*
X95265714Y-66886247D01*
X95265714Y-66886247D02*
X95218095Y-66791009D01*
X95218095Y-66791009D02*
X95170476Y-66743390D01*
X95170476Y-66743390D02*
X95075238Y-66695771D01*
X95075238Y-66695771D02*
X94884762Y-66695771D01*
X94884762Y-66695771D02*
X94789524Y-66743390D01*
X94789524Y-66743390D02*
X94741905Y-66791009D01*
X94741905Y-66791009D02*
X94694286Y-66886247D01*
X112895095Y-77871819D02*
X112895095Y-78681342D01*
X112895095Y-78681342D02*
X112942714Y-78776580D01*
X112942714Y-78776580D02*
X112990333Y-78824200D01*
X112990333Y-78824200D02*
X113085571Y-78871819D01*
X113085571Y-78871819D02*
X113276047Y-78871819D01*
X113276047Y-78871819D02*
X113371285Y-78824200D01*
X113371285Y-78824200D02*
X113418904Y-78776580D01*
X113418904Y-78776580D02*
X113466523Y-78681342D01*
X113466523Y-78681342D02*
X113466523Y-77871819D01*
X114371285Y-78205152D02*
X114371285Y-78871819D01*
X114133190Y-77824200D02*
X113895095Y-78538485D01*
X113895095Y-78538485D02*
X114514142Y-78538485D01*
X141140333Y-64866580D02*
X141092714Y-64914200D01*
X141092714Y-64914200D02*
X140949857Y-64961819D01*
X140949857Y-64961819D02*
X140854619Y-64961819D01*
X140854619Y-64961819D02*
X140711762Y-64914200D01*
X140711762Y-64914200D02*
X140616524Y-64818961D01*
X140616524Y-64818961D02*
X140568905Y-64723723D01*
X140568905Y-64723723D02*
X140521286Y-64533247D01*
X140521286Y-64533247D02*
X140521286Y-64390390D01*
X140521286Y-64390390D02*
X140568905Y-64199914D01*
X140568905Y-64199914D02*
X140616524Y-64104676D01*
X140616524Y-64104676D02*
X140711762Y-64009438D01*
X140711762Y-64009438D02*
X140854619Y-63961819D01*
X140854619Y-63961819D02*
X140949857Y-63961819D01*
X140949857Y-63961819D02*
X141092714Y-64009438D01*
X141092714Y-64009438D02*
X141140333Y-64057057D01*
X142045095Y-63961819D02*
X141568905Y-63961819D01*
X141568905Y-63961819D02*
X141521286Y-64438009D01*
X141521286Y-64438009D02*
X141568905Y-64390390D01*
X141568905Y-64390390D02*
X141664143Y-64342771D01*
X141664143Y-64342771D02*
X141902238Y-64342771D01*
X141902238Y-64342771D02*
X141997476Y-64390390D01*
X141997476Y-64390390D02*
X142045095Y-64438009D01*
X142045095Y-64438009D02*
X142092714Y-64533247D01*
X142092714Y-64533247D02*
X142092714Y-64771342D01*
X142092714Y-64771342D02*
X142045095Y-64866580D01*
X142045095Y-64866580D02*
X141997476Y-64914200D01*
X141997476Y-64914200D02*
X141902238Y-64961819D01*
X141902238Y-64961819D02*
X141664143Y-64961819D01*
X141664143Y-64961819D02*
X141568905Y-64914200D01*
X141568905Y-64914200D02*
X141521286Y-64866580D01*
X94754819Y-137988666D02*
X94278628Y-138321999D01*
X94754819Y-138560094D02*
X93754819Y-138560094D01*
X93754819Y-138560094D02*
X93754819Y-138179142D01*
X93754819Y-138179142D02*
X93802438Y-138083904D01*
X93802438Y-138083904D02*
X93850057Y-138036285D01*
X93850057Y-138036285D02*
X93945295Y-137988666D01*
X93945295Y-137988666D02*
X94088152Y-137988666D01*
X94088152Y-137988666D02*
X94183390Y-138036285D01*
X94183390Y-138036285D02*
X94231009Y-138083904D01*
X94231009Y-138083904D02*
X94278628Y-138179142D01*
X94278628Y-138179142D02*
X94278628Y-138560094D01*
X94754819Y-137512475D02*
X94754819Y-137321999D01*
X94754819Y-137321999D02*
X94707200Y-137226761D01*
X94707200Y-137226761D02*
X94659580Y-137179142D01*
X94659580Y-137179142D02*
X94516723Y-137083904D01*
X94516723Y-137083904D02*
X94326247Y-137036285D01*
X94326247Y-137036285D02*
X93945295Y-137036285D01*
X93945295Y-137036285D02*
X93850057Y-137083904D01*
X93850057Y-137083904D02*
X93802438Y-137131523D01*
X93802438Y-137131523D02*
X93754819Y-137226761D01*
X93754819Y-137226761D02*
X93754819Y-137417237D01*
X93754819Y-137417237D02*
X93802438Y-137512475D01*
X93802438Y-137512475D02*
X93850057Y-137560094D01*
X93850057Y-137560094D02*
X93945295Y-137607713D01*
X93945295Y-137607713D02*
X94183390Y-137607713D01*
X94183390Y-137607713D02*
X94278628Y-137560094D01*
X94278628Y-137560094D02*
X94326247Y-137512475D01*
X94326247Y-137512475D02*
X94373866Y-137417237D01*
X94373866Y-137417237D02*
X94373866Y-137226761D01*
X94373866Y-137226761D02*
X94326247Y-137131523D01*
X94326247Y-137131523D02*
X94278628Y-137083904D01*
X94278628Y-137083904D02*
X94183390Y-137036285D01*
X92876666Y-150007819D02*
X92876666Y-150722104D01*
X92876666Y-150722104D02*
X92829047Y-150864961D01*
X92829047Y-150864961D02*
X92733809Y-150960200D01*
X92733809Y-150960200D02*
X92590952Y-151007819D01*
X92590952Y-151007819D02*
X92495714Y-151007819D01*
X93829047Y-150007819D02*
X93352857Y-150007819D01*
X93352857Y-150007819D02*
X93305238Y-150484009D01*
X93305238Y-150484009D02*
X93352857Y-150436390D01*
X93352857Y-150436390D02*
X93448095Y-150388771D01*
X93448095Y-150388771D02*
X93686190Y-150388771D01*
X93686190Y-150388771D02*
X93781428Y-150436390D01*
X93781428Y-150436390D02*
X93829047Y-150484009D01*
X93829047Y-150484009D02*
X93876666Y-150579247D01*
X93876666Y-150579247D02*
X93876666Y-150817342D01*
X93876666Y-150817342D02*
X93829047Y-150912580D01*
X93829047Y-150912580D02*
X93781428Y-150960200D01*
X93781428Y-150960200D02*
X93686190Y-151007819D01*
X93686190Y-151007819D02*
X93448095Y-151007819D01*
X93448095Y-151007819D02*
X93352857Y-150960200D01*
X93352857Y-150960200D02*
X93305238Y-150912580D01*
X110274819Y-137704857D02*
X109798628Y-138038190D01*
X110274819Y-138276285D02*
X109274819Y-138276285D01*
X109274819Y-138276285D02*
X109274819Y-137895333D01*
X109274819Y-137895333D02*
X109322438Y-137800095D01*
X109322438Y-137800095D02*
X109370057Y-137752476D01*
X109370057Y-137752476D02*
X109465295Y-137704857D01*
X109465295Y-137704857D02*
X109608152Y-137704857D01*
X109608152Y-137704857D02*
X109703390Y-137752476D01*
X109703390Y-137752476D02*
X109751009Y-137800095D01*
X109751009Y-137800095D02*
X109798628Y-137895333D01*
X109798628Y-137895333D02*
X109798628Y-138276285D01*
X110274819Y-136752476D02*
X110274819Y-137323904D01*
X110274819Y-137038190D02*
X109274819Y-137038190D01*
X109274819Y-137038190D02*
X109417676Y-137133428D01*
X109417676Y-137133428D02*
X109512914Y-137228666D01*
X109512914Y-137228666D02*
X109560533Y-137323904D01*
X109370057Y-136371523D02*
X109322438Y-136323904D01*
X109322438Y-136323904D02*
X109274819Y-136228666D01*
X109274819Y-136228666D02*
X109274819Y-135990571D01*
X109274819Y-135990571D02*
X109322438Y-135895333D01*
X109322438Y-135895333D02*
X109370057Y-135847714D01*
X109370057Y-135847714D02*
X109465295Y-135800095D01*
X109465295Y-135800095D02*
X109560533Y-135800095D01*
X109560533Y-135800095D02*
X109703390Y-135847714D01*
X109703390Y-135847714D02*
X110274819Y-136419142D01*
X110274819Y-136419142D02*
X110274819Y-135800095D01*
X77803333Y-72220580D02*
X77755714Y-72268200D01*
X77755714Y-72268200D02*
X77612857Y-72315819D01*
X77612857Y-72315819D02*
X77517619Y-72315819D01*
X77517619Y-72315819D02*
X77374762Y-72268200D01*
X77374762Y-72268200D02*
X77279524Y-72172961D01*
X77279524Y-72172961D02*
X77231905Y-72077723D01*
X77231905Y-72077723D02*
X77184286Y-71887247D01*
X77184286Y-71887247D02*
X77184286Y-71744390D01*
X77184286Y-71744390D02*
X77231905Y-71553914D01*
X77231905Y-71553914D02*
X77279524Y-71458676D01*
X77279524Y-71458676D02*
X77374762Y-71363438D01*
X77374762Y-71363438D02*
X77517619Y-71315819D01*
X77517619Y-71315819D02*
X77612857Y-71315819D01*
X77612857Y-71315819D02*
X77755714Y-71363438D01*
X77755714Y-71363438D02*
X77803333Y-71411057D01*
X78136667Y-71315819D02*
X78803333Y-71315819D01*
X78803333Y-71315819D02*
X78374762Y-72315819D01*
D38*
%TO.C,J7*%
X67627000Y-148057000D02*
X67627000Y-149307000D01*
X67917000Y-148347000D02*
X67917000Y-154317000D01*
X67917000Y-154317000D02*
X75537000Y-154317000D01*
X67927000Y-148357000D02*
X67927000Y-149107000D01*
X67927000Y-149107000D02*
X69727000Y-149107000D01*
X67927000Y-150607000D02*
X68677000Y-150607000D01*
X68677000Y-150607000D02*
X68677000Y-153557000D01*
X68677000Y-153557000D02*
X71727000Y-153557000D01*
X68877000Y-148057000D02*
X67627000Y-148057000D01*
X69727000Y-148357000D02*
X67927000Y-148357000D01*
X69727000Y-149107000D02*
X69727000Y-148357000D01*
X71227000Y-148357000D02*
X71227000Y-149107000D01*
X71227000Y-149107000D02*
X72227000Y-149107000D01*
X72227000Y-148357000D02*
X71227000Y-148357000D01*
X72227000Y-149107000D02*
X72227000Y-148357000D01*
X73727000Y-148357000D02*
X73727000Y-149107000D01*
X73727000Y-149107000D02*
X75527000Y-149107000D01*
X74777000Y-150607000D02*
X74777000Y-153557000D01*
X74777000Y-153557000D02*
X71727000Y-153557000D01*
X75527000Y-148357000D02*
X73727000Y-148357000D01*
X75527000Y-149107000D02*
X75527000Y-148357000D01*
X75527000Y-150607000D02*
X74777000Y-150607000D01*
X75537000Y-148347000D02*
X67917000Y-148347000D01*
X75537000Y-154317000D02*
X75537000Y-148347000D01*
%TO.C,R15*%
X96920000Y-140552000D02*
X96920000Y-147092000D01*
X96920000Y-147092000D02*
X97250000Y-147092000D01*
X97250000Y-140552000D02*
X96920000Y-140552000D01*
X99330000Y-140552000D02*
X99660000Y-140552000D01*
X99660000Y-140552000D02*
X99660000Y-147092000D01*
X99660000Y-147092000D02*
X99330000Y-147092000D01*
%TO.C,J4*%
X145551000Y-114231000D02*
X145551000Y-96341000D01*
X148311000Y-96341000D02*
X145551000Y-96341000D01*
X148311000Y-114231000D02*
X145551000Y-114231000D01*
X148311000Y-114231000D02*
X148311000Y-96341000D01*
X148311000Y-115501000D02*
X148311000Y-116881000D01*
X148311000Y-116881000D02*
X146931000Y-116881000D01*
%TO.C,C4*%
X141677000Y-60367000D02*
G75*
G02*
X136437000Y-60367000I-2620000J0D01*
G01*
X136437000Y-60367000D02*
G75*
G02*
X141677000Y-60367000I2620000J0D01*
G01*
%TO.C,C9*%
X133057000Y-67732000D02*
X133057000Y-66202000D01*
X134897000Y-66202000D02*
X134897000Y-67732000D01*
%TO.C,R2*%
X90488000Y-62205000D02*
X97028000Y-62205000D01*
X90488000Y-62535000D02*
X90488000Y-62205000D01*
X90488000Y-64615000D02*
X90488000Y-64945000D01*
X90488000Y-64945000D02*
X97028000Y-64945000D01*
X97028000Y-62205000D02*
X97028000Y-62535000D01*
X97028000Y-64945000D02*
X97028000Y-64615000D01*
%TO.C,J2*%
X123019000Y-56219000D02*
X123019000Y-57469000D01*
X123309000Y-56509000D02*
X123309000Y-62479000D01*
X123309000Y-62479000D02*
X130929000Y-62479000D01*
X123319000Y-56519000D02*
X123319000Y-57269000D01*
X123319000Y-57269000D02*
X125119000Y-57269000D01*
X123319000Y-58769000D02*
X124069000Y-58769000D01*
X124069000Y-58769000D02*
X124069000Y-61719000D01*
X124069000Y-61719000D02*
X127119000Y-61719000D01*
X124269000Y-56219000D02*
X123019000Y-56219000D01*
X125119000Y-56519000D02*
X123319000Y-56519000D01*
X125119000Y-57269000D02*
X125119000Y-56519000D01*
X126619000Y-56519000D02*
X126619000Y-57269000D01*
X126619000Y-57269000D02*
X127619000Y-57269000D01*
X127619000Y-56519000D02*
X126619000Y-56519000D01*
X127619000Y-57269000D02*
X127619000Y-56519000D01*
X129119000Y-56519000D02*
X129119000Y-57269000D01*
X129119000Y-57269000D02*
X130919000Y-57269000D01*
X130169000Y-58769000D02*
X130169000Y-61719000D01*
X130169000Y-61719000D02*
X127119000Y-61719000D01*
X130919000Y-56519000D02*
X129119000Y-56519000D01*
X130919000Y-57269000D02*
X130919000Y-56519000D01*
X130919000Y-58769000D02*
X130169000Y-58769000D01*
X130929000Y-56509000D02*
X123309000Y-56509000D01*
X130929000Y-62479000D02*
X130929000Y-56509000D01*
%TO.C,R10*%
X115970000Y-140552000D02*
X115970000Y-147092000D01*
X115970000Y-147092000D02*
X116300000Y-147092000D01*
X116300000Y-140552000D02*
X115970000Y-140552000D01*
X118380000Y-140552000D02*
X118710000Y-140552000D01*
X118710000Y-140552000D02*
X118710000Y-147092000D01*
X118710000Y-147092000D02*
X118380000Y-147092000D01*
%TO.C,R5*%
X84987000Y-68030000D02*
X91527000Y-68030000D01*
X84987000Y-68360000D02*
X84987000Y-68030000D01*
X84987000Y-70440000D02*
X84987000Y-70770000D01*
X84987000Y-70770000D02*
X91527000Y-70770000D01*
X91527000Y-68030000D02*
X91527000Y-68360000D01*
X91527000Y-70770000D02*
X91527000Y-70440000D01*
%TO.C,R8*%
X89300000Y-140552000D02*
X89630000Y-140552000D01*
X89300000Y-147092000D02*
X89300000Y-140552000D01*
X89630000Y-147092000D02*
X89300000Y-147092000D01*
X91710000Y-147092000D02*
X92040000Y-147092000D01*
X92040000Y-140552000D02*
X91710000Y-140552000D01*
X92040000Y-147092000D02*
X92040000Y-140552000D01*
%TO.C,R13*%
X104540000Y-140552000D02*
X104540000Y-147092000D01*
X104540000Y-147092000D02*
X104870000Y-147092000D01*
X104870000Y-140552000D02*
X104540000Y-140552000D01*
X106950000Y-140552000D02*
X107280000Y-140552000D01*
X107280000Y-140552000D02*
X107280000Y-147092000D01*
X107280000Y-147092000D02*
X106950000Y-147092000D01*
%TO.C,J6*%
X142967000Y-88847000D02*
X142967000Y-90097000D01*
X142967000Y-90097000D02*
X144217000Y-90097000D01*
X143257000Y-77187000D02*
X143257000Y-89807000D01*
X143257000Y-89807000D02*
X149227000Y-89807000D01*
X143267000Y-77197000D02*
X143267000Y-78997000D01*
X143267000Y-78997000D02*
X144017000Y-78997000D01*
X143267000Y-80497000D02*
X143267000Y-86497000D01*
X143267000Y-86497000D02*
X144017000Y-86497000D01*
X143267000Y-87997000D02*
X143267000Y-89797000D01*
X143267000Y-89797000D02*
X144017000Y-89797000D01*
X144017000Y-77197000D02*
X143267000Y-77197000D01*
X144017000Y-78997000D02*
X144017000Y-77197000D01*
X144017000Y-80497000D02*
X143267000Y-80497000D01*
X144017000Y-86497000D02*
X144017000Y-80497000D01*
X144017000Y-87997000D02*
X143267000Y-87997000D01*
X144017000Y-89797000D02*
X144017000Y-87997000D01*
X145517000Y-77197000D02*
X145517000Y-77947000D01*
X145517000Y-77947000D02*
X148467000Y-77947000D01*
X145517000Y-89047000D02*
X148467000Y-89047000D01*
X145517000Y-89797000D02*
X145517000Y-89047000D01*
X148467000Y-77947000D02*
X148467000Y-83497000D01*
X148467000Y-89047000D02*
X148467000Y-83497000D01*
X149227000Y-77187000D02*
X143257000Y-77187000D01*
X149227000Y-89807000D02*
X149227000Y-77187000D01*
%TO.C,J9*%
X60842000Y-100007000D02*
X60842000Y-94817000D01*
X63602000Y-94817000D02*
X60842000Y-94817000D01*
X63602000Y-100007000D02*
X60842000Y-100007000D01*
X63602000Y-100007000D02*
X63602000Y-94817000D01*
X63602000Y-101277000D02*
X63602000Y-102657000D01*
X63602000Y-102657000D02*
X62222000Y-102657000D01*
%TO.C,R3*%
X84987000Y-74253000D02*
X84987000Y-74583000D01*
X84987000Y-76993000D02*
X84987000Y-76663000D01*
X91527000Y-74253000D02*
X84987000Y-74253000D01*
X91527000Y-74583000D02*
X91527000Y-74253000D01*
X91527000Y-76663000D02*
X91527000Y-76993000D01*
X91527000Y-76993000D02*
X84987000Y-76993000D01*
D39*
%TO.C,U7*%
X66667000Y-94927000D02*
X66667000Y-130487000D01*
X66667000Y-94927000D02*
X103497000Y-94927000D01*
X103497000Y-94927000D02*
X103497000Y-130487000D01*
X103497000Y-130487000D02*
X66667000Y-130487000D01*
D34*
%TO.C,U1*%
X66958000Y-67114000D02*
X74793000Y-67114000D01*
X68193000Y-77274000D02*
X74793000Y-77274000D01*
D38*
%TO.C,R6*%
X82447000Y-82635000D02*
X82447000Y-82965000D01*
X82447000Y-85375000D02*
X82447000Y-85045000D01*
X88987000Y-82635000D02*
X82447000Y-82635000D01*
X88987000Y-82965000D02*
X88987000Y-82635000D01*
X88987000Y-85045000D02*
X88987000Y-85375000D01*
X88987000Y-85375000D02*
X82447000Y-85375000D01*
%TO.C,R4*%
X84987000Y-71078000D02*
X91527000Y-71078000D01*
X84987000Y-71408000D02*
X84987000Y-71078000D01*
X84987000Y-73488000D02*
X84987000Y-73818000D01*
X84987000Y-73818000D02*
X91527000Y-73818000D01*
X91527000Y-71078000D02*
X91527000Y-71408000D01*
X91527000Y-73818000D02*
X91527000Y-73488000D01*
%TO.C,C1*%
X133057000Y-61382000D02*
X133057000Y-59852000D01*
X134897000Y-59852000D02*
X134897000Y-61382000D01*
%TO.C,U2*%
X104154000Y-66927000D02*
X104154000Y-77207000D01*
X104154000Y-77207000D02*
X109454000Y-77207000D01*
X105804000Y-66927000D02*
X104154000Y-66927000D01*
X109454000Y-66927000D02*
X107804000Y-66927000D01*
X109454000Y-77207000D02*
X109454000Y-66927000D01*
X107804000Y-66927000D02*
G75*
G02*
X105804000Y-66927000I-1000000J0D01*
G01*
%TO.C,J10*%
X64187000Y-82417000D02*
X64187000Y-88387000D01*
X64187000Y-88387000D02*
X79307000Y-88387000D01*
X64197000Y-86127000D02*
X64947000Y-86127000D01*
X64197000Y-87627000D02*
X64197000Y-88377000D01*
X64197000Y-88377000D02*
X65997000Y-88377000D01*
X64947000Y-83177000D02*
X71747000Y-83177000D01*
X64947000Y-86127000D02*
X64947000Y-83177000D01*
X65997000Y-87627000D02*
X64197000Y-87627000D01*
X65997000Y-88377000D02*
X65997000Y-87627000D01*
X67497000Y-87627000D02*
X67497000Y-88377000D01*
X67497000Y-88377000D02*
X75997000Y-88377000D01*
X75997000Y-87627000D02*
X67497000Y-87627000D01*
X75997000Y-88377000D02*
X75997000Y-87627000D01*
X77497000Y-87627000D02*
X77497000Y-88377000D01*
X77497000Y-88377000D02*
X79297000Y-88377000D01*
X78347000Y-88677000D02*
X79597000Y-88677000D01*
X78547000Y-83177000D02*
X71747000Y-83177000D01*
X78547000Y-86127000D02*
X78547000Y-83177000D01*
X79297000Y-86127000D02*
X78547000Y-86127000D01*
X79297000Y-87627000D02*
X77497000Y-87627000D01*
X79297000Y-88377000D02*
X79297000Y-87627000D01*
X79307000Y-82417000D02*
X64187000Y-82417000D01*
X79307000Y-88387000D02*
X79307000Y-82417000D01*
X79597000Y-88677000D02*
X79597000Y-87427000D01*
%TO.C,R14*%
X100730000Y-140552000D02*
X100730000Y-147092000D01*
X100730000Y-147092000D02*
X101060000Y-147092000D01*
X101060000Y-140552000D02*
X100730000Y-140552000D01*
X103140000Y-140552000D02*
X103470000Y-140552000D01*
X103470000Y-140552000D02*
X103470000Y-147092000D01*
X103470000Y-147092000D02*
X103140000Y-147092000D01*
%TO.C,J1*%
X66016000Y-56473000D02*
X66016000Y-57723000D01*
X66306000Y-56763000D02*
X66306000Y-62733000D01*
X66306000Y-62733000D02*
X76426000Y-62733000D01*
X66316000Y-56773000D02*
X66316000Y-57523000D01*
X66316000Y-57523000D02*
X68116000Y-57523000D01*
X66316000Y-59023000D02*
X67066000Y-59023000D01*
X67066000Y-59023000D02*
X67066000Y-61973000D01*
X67066000Y-61973000D02*
X71366000Y-61973000D01*
X67266000Y-56473000D02*
X66016000Y-56473000D01*
X68116000Y-56773000D02*
X66316000Y-56773000D01*
X68116000Y-57523000D02*
X68116000Y-56773000D01*
X69616000Y-56773000D02*
X69616000Y-57523000D01*
X69616000Y-57523000D02*
X73116000Y-57523000D01*
X73116000Y-56773000D02*
X69616000Y-56773000D01*
X73116000Y-57523000D02*
X73116000Y-56773000D01*
X74616000Y-56773000D02*
X74616000Y-57523000D01*
X74616000Y-57523000D02*
X76416000Y-57523000D01*
X75666000Y-59023000D02*
X75666000Y-61973000D01*
X75666000Y-61973000D02*
X71366000Y-61973000D01*
X76416000Y-56773000D02*
X74616000Y-56773000D01*
X76416000Y-57523000D02*
X76416000Y-56773000D01*
X76416000Y-59023000D02*
X75666000Y-59023000D01*
X76426000Y-56763000D02*
X66306000Y-56763000D01*
X76426000Y-62733000D02*
X76426000Y-56763000D01*
D34*
%TO.C,U3*%
X143018000Y-68447000D02*
X147718000Y-68447000D01*
X147718000Y-57907000D02*
X144518000Y-57907000D01*
X147718000Y-68447000D02*
X147718000Y-57907000D01*
D38*
%TO.C,R1*%
X90488000Y-58395000D02*
X90488000Y-58725000D01*
X90488000Y-61135000D02*
X90488000Y-60805000D01*
X97028000Y-58395000D02*
X90488000Y-58395000D01*
X97028000Y-58725000D02*
X97028000Y-58395000D01*
X97028000Y-60805000D02*
X97028000Y-61135000D01*
X97028000Y-61135000D02*
X90488000Y-61135000D01*
%TO.C,R7*%
X82447000Y-86307000D02*
X82447000Y-86637000D01*
X82447000Y-89047000D02*
X82447000Y-88717000D01*
X88987000Y-86307000D02*
X82447000Y-86307000D01*
X88987000Y-86637000D02*
X88987000Y-86307000D01*
X88987000Y-88717000D02*
X88987000Y-89047000D01*
X88987000Y-89047000D02*
X82447000Y-89047000D01*
%TO.C,J3*%
X101449000Y-56490000D02*
X101449000Y-57740000D01*
X101739000Y-56780000D02*
X101739000Y-62750000D01*
X101739000Y-62750000D02*
X111859000Y-62750000D01*
X101749000Y-56790000D02*
X101749000Y-57540000D01*
X101749000Y-57540000D02*
X103549000Y-57540000D01*
X101749000Y-59040000D02*
X102499000Y-59040000D01*
X102499000Y-59040000D02*
X102499000Y-61990000D01*
X102499000Y-61990000D02*
X106799000Y-61990000D01*
X102699000Y-56490000D02*
X101449000Y-56490000D01*
X103549000Y-56790000D02*
X101749000Y-56790000D01*
X103549000Y-57540000D02*
X103549000Y-56790000D01*
X105049000Y-56790000D02*
X105049000Y-57540000D01*
X105049000Y-57540000D02*
X108549000Y-57540000D01*
X108549000Y-56790000D02*
X105049000Y-56790000D01*
X108549000Y-57540000D02*
X108549000Y-56790000D01*
X110049000Y-56790000D02*
X110049000Y-57540000D01*
X110049000Y-57540000D02*
X111849000Y-57540000D01*
X111099000Y-59040000D02*
X111099000Y-61990000D01*
X111099000Y-61990000D02*
X106799000Y-61990000D01*
X111849000Y-56790000D02*
X110049000Y-56790000D01*
X111849000Y-57540000D02*
X111849000Y-56790000D01*
X111849000Y-59040000D02*
X111099000Y-59040000D01*
X111859000Y-56780000D02*
X101739000Y-56780000D01*
X111859000Y-62750000D02*
X111859000Y-56780000D01*
%TO.C,C3*%
X112737000Y-70272000D02*
X112737000Y-68742000D01*
X114577000Y-68742000D02*
X114577000Y-70272000D01*
%TO.C,J8*%
X77787000Y-148057000D02*
X77787000Y-149307000D01*
X78077000Y-148347000D02*
X78077000Y-154317000D01*
X78077000Y-154317000D02*
X85697000Y-154317000D01*
X78087000Y-148357000D02*
X78087000Y-149107000D01*
X78087000Y-149107000D02*
X79887000Y-149107000D01*
X78087000Y-150607000D02*
X78837000Y-150607000D01*
X78837000Y-150607000D02*
X78837000Y-153557000D01*
X78837000Y-153557000D02*
X81887000Y-153557000D01*
X79037000Y-148057000D02*
X77787000Y-148057000D01*
X79887000Y-148357000D02*
X78087000Y-148357000D01*
X79887000Y-149107000D02*
X79887000Y-148357000D01*
X81387000Y-148357000D02*
X81387000Y-149107000D01*
X81387000Y-149107000D02*
X82387000Y-149107000D01*
X82387000Y-148357000D02*
X81387000Y-148357000D01*
X82387000Y-149107000D02*
X82387000Y-148357000D01*
X83887000Y-148357000D02*
X83887000Y-149107000D01*
X83887000Y-149107000D02*
X85687000Y-149107000D01*
X84937000Y-150607000D02*
X84937000Y-153557000D01*
X84937000Y-153557000D02*
X81887000Y-153557000D01*
X85687000Y-148357000D02*
X83887000Y-148357000D01*
X85687000Y-149107000D02*
X85687000Y-148357000D01*
X85687000Y-150607000D02*
X84937000Y-150607000D01*
X85697000Y-148347000D02*
X78077000Y-148347000D01*
X85697000Y-154317000D02*
X85697000Y-148347000D01*
%TO.C,C2*%
X100624000Y-75750000D02*
G75*
G02*
X95384000Y-75750000I-2620000J0D01*
G01*
X95384000Y-75750000D02*
G75*
G02*
X100624000Y-75750000I2620000J0D01*
G01*
%TO.C,R11*%
X112160000Y-140552000D02*
X112160000Y-147092000D01*
X112160000Y-147092000D02*
X112490000Y-147092000D01*
X112490000Y-140552000D02*
X112160000Y-140552000D01*
X114570000Y-140552000D02*
X114900000Y-140552000D01*
X114900000Y-140552000D02*
X114900000Y-147092000D01*
X114900000Y-147092000D02*
X114570000Y-147092000D01*
%TO.C,C6*%
X100624000Y-69400000D02*
G75*
G02*
X95384000Y-69400000I-2620000J0D01*
G01*
X95384000Y-69400000D02*
G75*
G02*
X100624000Y-69400000I2620000J0D01*
G01*
D39*
%TO.C,U4*%
X112127000Y-79612000D02*
X140637000Y-79612000D01*
X112127000Y-130562000D02*
X112127000Y-79612000D01*
X112127000Y-130562000D02*
X112127000Y-79612000D01*
X117577000Y-79612000D02*
X112127000Y-79612000D01*
X122857000Y-130562000D02*
X112127000Y-130562000D01*
X129568000Y-130562000D02*
X122857000Y-130562000D01*
X135267000Y-79612000D02*
X117577000Y-79612000D01*
X140637000Y-79612000D02*
X135267000Y-79612000D01*
X140637000Y-79612000D02*
X140637000Y-130562000D01*
X140637000Y-79612000D02*
X140637000Y-130562000D01*
X140637000Y-130562000D02*
X112127000Y-130562000D01*
X140637000Y-130562000D02*
X129568000Y-130562000D01*
D34*
X141307000Y-120602000D02*
G75*
G02*
X141107000Y-120602000I-100000J0D01*
G01*
X141107000Y-120602000D02*
G75*
G02*
X141307000Y-120602000I100000J0D01*
G01*
D38*
%TO.C,C5*%
X141677000Y-67257000D02*
G75*
G02*
X136437000Y-67257000I-2620000J0D01*
G01*
X136437000Y-67257000D02*
G75*
G02*
X141677000Y-67257000I2620000J0D01*
G01*
%TO.C,R9*%
X93110000Y-140552000D02*
X93440000Y-140552000D01*
X93110000Y-147092000D02*
X93110000Y-140552000D01*
X93440000Y-147092000D02*
X93110000Y-147092000D01*
X95520000Y-147092000D02*
X95850000Y-147092000D01*
X95850000Y-140552000D02*
X95520000Y-140552000D01*
X95850000Y-147092000D02*
X95850000Y-140552000D01*
%TO.C,J5*%
X93100000Y-151713000D02*
X93100000Y-154473000D01*
X110990000Y-151713000D02*
X93100000Y-151713000D01*
X110990000Y-151713000D02*
X110990000Y-154473000D01*
X110990000Y-154473000D02*
X93100000Y-154473000D01*
X112260000Y-151713000D02*
X113640000Y-151713000D01*
X113640000Y-151713000D02*
X113640000Y-153093000D01*
%TO.C,R12*%
X108350000Y-140552000D02*
X108350000Y-147092000D01*
X108350000Y-147092000D02*
X108680000Y-147092000D01*
X108680000Y-140552000D02*
X108350000Y-140552000D01*
X110760000Y-140552000D02*
X111090000Y-140552000D01*
X111090000Y-140552000D02*
X111090000Y-147092000D01*
X111090000Y-147092000D02*
X110760000Y-147092000D01*
%TO.C,C7*%
X77050000Y-75626000D02*
X77050000Y-74096000D01*
X78890000Y-74096000D02*
X78890000Y-75626000D01*
%TD*%
D40*
X59817000Y-56007000D02*
X149817000Y-56007000D01*
X149817000Y-156007000D01*
X59817000Y-156007000D01*
X59817000Y-56007000D01*
M02*
